<svg xmlns="http://www.w3.org/2000/svg" width="925.87" height="415.47" fill="none" stroke-linecap="square" stroke-miterlimit="10"><clipPath id="a"><path d="M0 0h960v540H0Z"/></clipPath><g clip-path="url(#a)" transform="translate(-32.22 -26.83)"><path fill="#fff" fill-rule="evenodd" d="M105.03 27.33h118.71V97h-118.7Z"/><path stroke="#000" stroke-linecap="butt" stroke-linejoin="round" d="M105.03 27.33h118.71V97h-118.7Z"/><path fill="#000" d="M122.46 55.76V44.6h-6.02v-1.78h8.2v12.95zm.86-15.67q-.75 0-1.27-.47-.5-.47-.5-1.23 0-.78.5-1.24.52-.47 1.27-.47t1.25.47q.5.46.5 1.24 0 .76-.5 1.23t-1.25.47zm30.4 16.08-7.25-7.06V49l7.25-7.07 1.15 1.22-5.36 4.99h11.68v1.8h-11.68l5.36 5zm32.29-.1q-1.9 0-3.25-1.04-1.36-1.05-2.11-3.02-.75-1.98-.75-4.81 0-4.28 1.64-6.52 1.64-2.25 4.47-2.25 2.84 0 4.47 2.25 1.62 2.24 1.62 6.52 0 2.83-.73 4.81-.72 1.97-2.1 3.02-1.37 1.04-3.26 1.04zm0-1.75q1.2 0 2.1-.75.91-.76 1.43-2.34.52-1.6.52-4.03 0-2.45-.52-3.99t-1.42-2.28q-.9-.73-2.11-.73-1.17 0-2.1.73-.92.74-1.45 2.28-.51 1.54-.51 3.99 0 2.44.51 4.03.53 1.58 1.46 2.34.92.75 2.09.75zm0-5.51q-.67 0-1.17-.49-.49-.48-.49-1.3 0-.82.49-1.29.5-.47 1.17-.47.69 0 1.17.47.49.47.49 1.28 0 .83-.49 1.31-.48.49-1.17.49zM120.6 88.07q-1.2 0-2.22-.43-1.02-.44-1.61-1.27-.58-.83-.58-1.97 0-2.19 2.19-3.31 2.19-1.14 7.2-1.53-.03-.9-.37-1.63-.33-.75-1.08-1.18-.74-.46-1.99-.46-.82 0-1.64.24-.81.22-1.54.58-.74.35-1.35.73l-.86-1.48q.64-.43 1.57-.86.92-.46 1.98-.74 1.06-.28 2.22-.28 1.78 0 2.94.67 1.15.67 1.73 1.86.58 1.19.58 2.81v7.94h-1.8l-.19-1.76h-.07q-1.07.86-2.41 1.46-1.33.61-2.7.61zm.57-1.75q1.13 0 2.22-.5 1.1-.51 2.2-1.42V81q-2.79.23-4.38.67-1.58.42-2.24 1.08-.64.64-.64 1.5 0 .71.4 1.18t1.04.7q.65.2 1.4.2zm32.55 1.85-7.25-7.06V81l7.25-7.07 1.15 1.22-5.36 4.99h11.68v1.8h-11.68l5.36 5zm26.87-.4v-1.82h4.9V73.42h-3.8v-1.4q1-.15 1.77-.34.78-.18 1.42-.4.64-.24 1.18-.52h1.62v15.19h4.45v1.81z"/><path fill="#fff" fill-rule="evenodd" d="M96.67 155.6h195.34v91.23H96.67Z"/><path stroke="#000" stroke-linecap="butt" stroke-linejoin="round" d="M96.67 155.6h195.34v91.23H96.67Z"/><path fill="#000" d="M116.5 187.13q-2.06 0-3.15-1.18-1.1-1.18-1.1-3.48v-12.84h-4.42v-1.8h6.61v14.8q0 1.42.69 2.06.7.62 1.84.62.56 0 1.14-.14.6-.14 1.31-.47l.57 1.66q-.88.31-1.66.53-.76.24-1.83.24zm13.17 0q-1.7 0-3.16-.8-1.45-.8-2.36-2.31-.89-1.52-.89-3.66 0-2.19.9-3.7.9-1.52 2.35-2.32 1.46-.8 3.16-.8 1.7 0 3.15.8 1.46.8 2.35 2.32.89 1.51.89 3.7 0 2.14-.9 3.66-.88 1.51-2.34 2.3-1.45.8-3.15.8zm0-1.82q1.25 0 2.17-.62.94-.63 1.44-1.74.51-1.12.51-2.59 0-1.48-.51-2.61-.5-1.14-1.44-1.77-.92-.64-2.17-.64t-2.17.64q-.93.63-1.46 1.77-.51 1.13-.51 2.61 0 1.47.51 2.6.53 1.1 1.46 1.73.92.62 2.17.62zm16 1.82q-1.71 0-3.16-.8-1.46-.8-2.36-2.31-.9-1.52-.9-3.66 0-2.19.9-3.7.9-1.52 2.36-2.32 1.45-.8 3.15-.8t3.16.8q1.45.8 2.34 2.32.9 1.51.9 3.7 0 2.14-.9 3.66-.89 1.51-2.34 2.3-1.45.8-3.16.8zm0-1.82q1.24 0 2.16-.62.94-.63 1.44-1.74.52-1.12.52-2.59 0-1.48-.52-2.61-.5-1.14-1.44-1.77-.92-.64-2.17-.64t-2.17.64q-.92.63-1.45 1.77-.52 1.13-.52 2.61 0 1.47.52 2.6.53 1.1 1.45 1.73.92.62 2.17.62zm10.47 6.97v-18.42h1.81l.19 1.66h.08q.9-.86 2.1-1.43 1.18-.56 2.37-.56 1.76 0 2.95.81 1.19.82 1.8 2.3.6 1.49.6 3.52 0 2.17-.82 3.75-.83 1.57-2.16 2.4-1.33.82-2.9.82-.88 0-1.94-.44-1.05-.44-1.92-1.24h-.08l.1 2.46v4.37zm5.64-6.98q1.16 0 2.06-.61.9-.63 1.43-1.78.51-1.16.51-2.75 0-1.43-.37-2.5-.38-1.08-1.18-1.68-.8-.6-2.09-.6-.9 0-1.86.46-.97.47-1.95 1.49v6.45q.92.81 1.86 1.17.95.35 1.6.35zm15.87-7.72q-.88 0-1.52-.63-.64-.62-.64-1.6 0-1.02.64-1.65.64-.62 1.52-.62.9 0 1.53.62.63.63.63 1.64 0 .99-.63 1.61-.62.63-1.53.63zm0 9.55q-.88 0-1.52-.63-.64-.62-.64-1.6 0-1.02.64-1.65.64-.62 1.52-.62.9 0 1.53.62.63.63.63 1.64 0 .99-.63 1.61-.62.63-1.53.63zm-30.15 47.68v-11.17h-6.02v-1.78h8.2v12.95zm.85-15.67q-.75 0-1.26-.47-.5-.47-.5-1.23 0-.78.5-1.24.51-.47 1.26-.47t1.25.47q.5.46.5 1.24 0 .76-.5 1.23t-1.25.47zm13.17 15.67v-14.04q0-1.58.56-2.77.58-1.19 1.72-1.83 1.15-.65 2.94-.65.96 0 1.87.17.92.17 1.86.58l-.5 1.64q-.81-.36-1.5-.49-.67-.12-1.52-.12-1.73 0-2.51.9-.77.91-.77 2.49v14.12zm-3.7-11.17v-1.66l3.77-.12h7.52v1.78zm37.65 11.17v-11.17h-6.01v-1.78h8.2v12.95zm.86-15.67q-.75 0-1.26-.47-.5-.47-.5-1.23 0-.78.5-1.24.51-.47 1.26-.47t1.25.47q.5.46.5 1.24 0 .76-.5 1.23t-1.25.47zm35.85 14.4-9.94-6.76v-1.64l9.94-6.75v2.11l-8.02 5.4v.12l8.02 5.4zm21.42 1.27V233h4.91v-12.53h-3.81v-1.4q1.01-.15 1.78-.34.78-.18 1.42-.4.64-.24 1.17-.52h1.63V233h4.45v1.81zm21.42.32q-1.9 0-3.25-1.05-1.36-1.05-2.11-3.02-.75-1.98-.75-4.81 0-4.28 1.64-6.52 1.64-2.25 4.47-2.25 2.84 0 4.47 2.25 1.62 2.24 1.62 6.52 0 2.83-.73 4.81-.72 1.97-2.1 3.02-1.37 1.05-3.26 1.05zm0-1.75q1.2 0 2.1-.75.92-.77 1.43-2.35.52-1.6.52-4.03 0-2.45-.52-3.98-.51-1.55-1.42-2.29-.9-.73-2.11-.73-1.17 0-2.1.73-.92.74-1.45 2.29-.51 1.53-.51 3.98 0 2.44.51 4.03.53 1.58 1.46 2.35.92.75 2.09.75zm0-5.52q-.67 0-1.17-.48-.49-.49-.49-1.32 0-.81.49-1.28.5-.47 1.17-.47.69 0 1.17.47.49.47.49 1.28 0 .83-.49 1.32-.48.48-1.17.48z"/><path d="m164.39 97 29.95 58.58"/><path stroke="#595959" stroke-linecap="butt" stroke-linejoin="round" stroke-width="2" d="m164.39 97 26.83 52.48"/><path fill="#595959" fill-rule="evenodd" stroke="#595959" stroke-linecap="butt" stroke-width="2" d="m191.22 149.48-3.03-.98 4.82 4.48-.81-6.53z"/><path fill="#fff" fill-rule="evenodd" d="M206.33 351.2h169.51v72.44h-169.5Z"/><path stroke="#000" stroke-linecap="butt" stroke-linejoin="round" d="M206.33 351.2h169.51v72.44h-169.5Z"/><path fill="#000" d="M223.75 381.02v-11.17h-6.01v-1.78h8.2v12.95zm.86-15.67q-.75 0-1.26-.47-.5-.47-.5-1.24 0-.78.5-1.23.51-.47 1.26-.47t1.25.47q.5.45.5 1.23 0 .77-.5 1.24t-1.25.47zm30.41 16.08-7.25-7.07v-.1l7.25-7.07 1.14 1.22-5.36 4.98h11.69v1.82H250.8l5.36 4.98zm32.7-.41v-11.17h-6v-1.78h8.2v12.95zm.87-15.67q-.75 0-1.27-.47-.5-.47-.5-1.24 0-.78.5-1.23.52-.47 1.27-.47t1.25.47q.5.45.5 1.23 0 .77-.5 1.24t-1.25.47zm29.83 12.9v-5.2h-4.86v-1.66h4.86v-5.2h1.75v5.2h4.86v1.66h-4.86v5.2zm27.44 2.77v-1.81h4.9v-12.53h-3.8v-1.41q1-.14 1.77-.33.78-.19 1.43-.4.64-.24 1.17-.52h1.62v15.19h4.46v1.81zM221.9 413.33q-1.21 0-2.23-.44-1.01-.43-1.6-1.26-.58-.83-.58-1.97 0-2.19 2.18-3.31 2.2-1.14 7.2-1.53-.02-.9-.37-1.63-.33-.75-1.08-1.19-.73-.45-1.98-.45-.83 0-1.64.24-.81.21-1.55.57-.73.36-1.34.74l-.86-1.49q.64-.42 1.56-.86.92-.45 1.99-.73 1.06-.28 2.22-.28 1.78 0 2.93.67 1.16.67 1.74 1.86.58 1.19.58 2.81v7.94h-1.8l-.19-1.77H227q-1.06.86-2.4 1.47-1.33.61-2.7.61zm.57-1.75q1.13 0 2.22-.5 1.1-.51 2.19-1.42v-3.4q-2.78.23-4.38.67-1.58.42-2.23 1.07-.64.64-.64 1.5 0 .72.39 1.2.4.46 1.05.68.65.2 1.4.2zm32.55 1.85-7.25-7.07v-.1l7.25-7.07 1.14 1.22-5.36 4.98h11.69v1.82H250.8l5.36 4.98zm30.85-.1q-1.2 0-2.22-.43-1.02-.44-1.61-1.27-.58-.83-.58-1.97 0-2.19 2.19-3.31 2.19-1.14 7.2-1.53-.03-.9-.37-1.63-.33-.75-1.08-1.19-.74-.45-1.99-.45-.82 0-1.64.24-.8.21-1.54.57t-1.35.74l-.86-1.49q.64-.42 1.57-.86.92-.45 1.98-.73 1.06-.28 2.22-.28 1.78 0 2.94.67 1.15.67 1.73 1.86.58 1.19.58 2.81v7.94h-1.8l-.18-1.77h-.08q-1.07.86-2.4 1.47-1.34.61-2.71.61zm.58-1.75q1.12 0 2.21-.5 1.1-.51 2.2-1.42v-3.4q-2.79.23-4.38.67-1.58.42-2.24 1.07-.64.65-.64 1.5 0 .72.4 1.2.4.46 1.04.68.66.2 1.4.2zm29.64-1.51-1.13-.82 2.9-4.39-4.33-1.86.43-1.23 4.46 1.47.23-5.05h1.28l.24 5.05 4.45-1.47.42 1.23-4.31 1.86 2.88 4.4-1.11.8-3.2-4.24zm35.61 2.95v-11.17h-6.01v-1.78h8.2v12.95zm.86-15.67q-.75 0-1.26-.47-.5-.47-.5-1.23 0-.79.5-1.24.51-.47 1.26-.47t1.25.47q.5.45.5 1.24 0 .76-.5 1.23t-1.25.47z"/><path fill="#fff" fill-rule="evenodd" d="M32.72 305.43H193.9v45.67H32.72Z"/><path stroke="#000" stroke-linecap="butt" stroke-linejoin="round" d="M32.72 305.43H193.9v45.67H32.72Z"/><path fill="#000" d="M45.62 337.86v-12.95h1.8l.2 3.06h.07q1.02-1.58 2.5-2.48 1.5-.9 3.28-.9.72 0 1.35.12.64.12 1.22.42l-.5 1.89q-.67-.25-1.16-.35-.47-.1-1.25-.1-1.47 0-2.81.84-1.35.83-2.52 2.86v7.6zm20.9.31q-1.96 0-3.55-.8-1.58-.79-2.52-2.32-.92-1.53-.92-3.69 0-2.1.92-3.62.94-1.53 2.44-2.35 1.52-.8 3.25-.8 1.87 0 3.19.76 1.31.76 2.01 2.12.72 1.36.72 3.19 0 .37-.03.73-.03.35-.08.61H61v-1.72h9.64l-.55.63q0-2.3-1.06-3.44-1.05-1.15-2.83-1.15-1.2 0-2.23.59-1.03.58-1.64 1.7-.61 1.13-.61 2.75 0 1.67.65 2.8.68 1.12 1.82 1.7 1.15.56 2.6.56 1.16 0 2.1-.32.95-.35 1.84-.9l.8 1.44q-.97.63-2.2 1.08-1.24.45-2.82.45zm17.7 0q-1.9 0-3-.67-1.09-.68-1.56-1.87-.46-1.2-.46-2.8v-6.14h-3.64v-1.66l3.73-.12.28-4.16h1.81v4.16h6.38v1.78h-6.38v6.16q0 1.15.3 1.95t1.02 1.2q.71.4 1.96.4.94 0 1.68-.16.75-.16 1.45-.42l.47 1.59q-.88.31-1.85.53-.96.23-2.2.23zm12.05 0q-2.33 0-3.42-1.32-1.1-1.33-1.1-3.9v-8.04h2.22v7.75q0 1.84.67 2.73.7.9 2.32.9 1.12 0 2.03-.57.92-.58 2-1.83v-8.98h2.18v12.95h-1.8l-.18-2.26h-.11q-.98 1.12-2.16 1.86-1.17.71-2.65.71zm13.32-.3V324.9h1.81l.19 3.06h.08q1.01-1.58 2.5-2.48 1.5-.9 3.28-.9.72 0 1.34.12.64.12 1.22.42l-.5 1.89q-.67-.25-1.15-.35-.47-.1-1.25-.1-1.47 0-2.82.84-1.34.83-2.51 2.86v7.6zm14.59 0V324.9h1.81l.19 2.2h.1q1-1.08 2.18-1.8 1.17-.73 2.7-.73 2.28 0 3.38 1.34 1.09 1.33 1.09 3.9v8.04h-2.19v-7.75q0-1.84-.68-2.73-.7-.9-2.3-.9-1.14 0-2.05.6-.9.58-2.05 1.75v9.03zm36.06.3q-1.2 0-2.22-.43-1.01-.44-1.6-1.27-.58-.83-.58-1.97 0-2.18 2.18-3.3 2.2-1.15 7.2-1.54-.02-.9-.37-1.63-.33-.75-1.08-1.18-.73-.46-1.98-.46-.83 0-1.64.24-.81.22-1.55.58-.73.36-1.34.73l-.86-1.48q.64-.43 1.56-.86.92-.46 1.99-.74 1.06-.28 2.21-.28 1.79 0 2.94.67 1.16.67 1.74 1.86.57 1.19.57 2.81v7.94h-1.8l-.18-1.76h-.08q-1.06.86-2.4 1.47-1.33.6-2.7.6zm.58-1.75q1.13 0 2.22-.5 1.1-.51 2.19-1.42v-3.4q-2.78.23-4.38.67-1.58.42-2.23 1.08-.64.64-.64 1.5 0 .72.39 1.18.4.47 1.04.7.66.2 1.41.2z"/><path d="m194.34 246.83-81.04 58.59"/><path stroke="#595959" stroke-linecap="butt" stroke-linejoin="round" stroke-width="2" d="m194.34 246.83-75.48 54.57"/><path fill="#595959" fill-rule="evenodd" stroke="#595959" stroke-linecap="butt" stroke-width="2" d="m118.86 301.4.5-3.14-3.69 5.44 6.33-1.8z"/><path d="m194.34 246.83 96.76 104.38"/><path stroke="#595959" stroke-linecap="butt" stroke-linejoin="round" stroke-width="2" d="m194.34 246.83 92.1 99.36"/><path fill="#595959" fill-rule="evenodd" stroke="#595959" stroke-linecap="butt" stroke-width="2" d="m286.44 346.19-3.18-.12 5.85 3-2.55-6.06z"/><path d="M375.84 387.42h14.05V130.59H194.33v24.99"/><path stroke="#595959" stroke-linecap="butt" stroke-linejoin="round" stroke-width="2" d="M375.84 387.42h14.05V130.59H194.33v18.13"/><path fill="#595959" fill-rule="evenodd" stroke="#595959" stroke-linecap="butt" stroke-width="2" d="m194.33 148.72-2.25-2.25 2.25 6.18 2.25-6.18z"/><path fill="#fff" fill-rule="evenodd" d="M546.73 190.62H763.5v99.53H546.73Z"/><path stroke="#000" stroke-linecap="butt" stroke-linejoin="round" d="M546.73 190.62H763.5v99.53H546.73Z"/><path fill="#000" d="M566.56 226.3q-2.06 0-3.15-1.17-1.1-1.19-1.1-3.49V208.8h-4.42V207h6.61v14.8q0 1.42.69 2.06.7.63 1.84.63.56 0 1.14-.14.6-.14 1.31-.47l.57 1.66q-.88.3-1.66.53-.76.23-1.83.23zm13.17 0q-1.7 0-3.16-.8-1.45-.8-2.36-2.3-.89-1.52-.89-3.66 0-2.2.9-3.7.9-1.52 2.35-2.32 1.46-.81 3.16-.81 1.7 0 3.15.81 1.46.8 2.35 2.31.89 1.52.89 3.7 0 2.15-.9 3.66-.88 1.52-2.34 2.31-1.45.8-3.15.8zm0-1.81q1.25 0 2.17-.63.94-.62 1.44-1.73.51-1.13.51-2.6 0-1.48-.51-2.6-.5-1.14-1.44-1.77-.92-.64-2.17-.64t-2.17.64q-.93.63-1.46 1.77-.51 1.12-.51 2.6 0 1.47.51 2.6.53 1.1 1.46 1.73.92.63 2.17.63zm16 1.81q-1.71 0-3.16-.8-1.46-.8-2.36-2.3-.9-1.52-.9-3.66 0-2.2.9-3.7.9-1.52 2.36-2.32 1.45-.81 3.15-.81t3.16.81q1.45.8 2.34 2.31.9 1.52.9 3.7 0 2.15-.9 3.66-.89 1.52-2.34 2.31-1.45.8-3.16.8zm0-1.81q1.24 0 2.16-.63.94-.62 1.44-1.73.52-1.13.52-2.6 0-1.48-.52-2.6-.5-1.14-1.44-1.77-.92-.64-2.17-.64t-2.17.64q-.92.63-1.45 1.77-.52 1.12-.52 2.6 0 1.47.52 2.6.53 1.1 1.45 1.73.92.63 2.17.63zm10.47 6.97v-18.42h1.81l.19 1.65h.08q.9-.86 2.1-1.42 1.18-.56 2.37-.56 1.76 0 2.95.81 1.19.81 1.8 2.3.6 1.48.6 3.51 0 2.17-.82 3.75-.83 1.58-2.16 2.4-1.33.82-2.9.82-.88 0-1.94-.44-1.05-.43-1.92-1.23h-.08l.1 2.45v4.38zm5.64-6.99q1.16 0 2.06-.6.91-.63 1.43-1.79.51-1.15.51-2.75 0-1.42-.37-2.5-.38-1.08-1.18-1.67-.8-.6-2.09-.6-.89 0-1.86.46-.97.47-1.95 1.48v6.46q.92.81 1.86 1.17.95.34 1.6.34zm19.42 6.2q-2.78-2.18-4.4-5.2-1.6-3.03-1.6-6.89 0-3.87 1.6-6.9 1.62-3.05 4.4-5.2l1.18 1.12q-2.65 2.23-3.93 4.94-1.28 2.68-1.28 6.04t1.28 6.05q1.28 2.67 3.93 4.94zm12.87-4.68v-11.17h-6.02v-1.78h8.2v12.95zm.85-15.67q-.75 0-1.26-.47-.5-.47-.5-1.24 0-.78.5-1.23.51-.47 1.26-.47t1.25.47q.5.45.5 1.23 0 .77-.5 1.24t-1.25.47zm8.02 25.67v-.88q1.92-1.68 3.23-2.97 1.33-1.3 2.01-2.3.7-1.04.7-2t-.6-1.59q-.6-.62-1.86-.62-.8 0-1.49.39-.68.39-1.23.98l-.84-.84q.76-.78 1.64-1.25.89-.47 2.09-.47 1.14 0 1.97.42.83.41 1.28 1.16.45.75.45 1.77 0 1.06-.65 2.15-.66 1.08-1.85 2.28-1.18 1.19-2.73 2.61l1.08-.08q.53-.03 1.04-.03h3.74V236zm15.22-4.33-.61-1.37q1.7-.75 2.53-1.9.83-1.12.83-2.78l-.5-2.45 1.48 2.11q-.31.37-.7.5-.4.1-.78.1-.57 0-1.05-.21-.49-.23-.77-.67-.26-.44-.26-1.11 0-.99.62-1.5.64-.52 1.5-.52 1.17 0 1.78.93.63.9.63 2.48 0 2.34-1.27 3.95-1.25 1.61-3.43 2.44zm16.7-5.36q-1.21 0-2.23-.44-1.01-.43-1.6-1.26-.58-.83-.58-1.97 0-2.19 2.18-3.31 2.2-1.14 7.2-1.53-.02-.9-.37-1.63-.33-.75-1.08-1.19-.73-.45-1.98-.45-.83 0-1.64.23-.81.22-1.55.58-.73.36-1.34.74l-.86-1.49q.64-.42 1.56-.86.92-.45 1.99-.73 1.06-.28 2.21-.28 1.79 0 2.94.67 1.16.67 1.74 1.86.57 1.19.57 2.81V226h-1.8l-.18-1.77h-.08q-1.06.86-2.4 1.47-1.33.61-2.7.61zm.57-1.75q1.13 0 2.22-.5 1.1-.51 2.19-1.42v-3.4q-2.78.23-4.38.66-1.58.43-2.23 1.08-.64.64-.64 1.5 0 .72.39 1.19.4.47 1.04.69.66.2 1.41.2zm10.15 11.44v-.88q1.92-1.68 3.23-2.97 1.33-1.3 2.02-2.3.7-1.04.7-2t-.6-1.59q-.6-.62-1.87-.62-.8 0-1.48.39-.69.39-1.23.98l-.85-.84q.77-.78 1.64-1.25.9-.47 2.1-.47 1.14 0 1.97.42.82.41 1.28 1.16.45.75.45 1.77 0 1.06-.66 2.15-.65 1.08-1.84 2.28-1.19 1.19-2.73 2.61l1.07-.08q.53-.03 1.05-.03h3.73V236zm13.82-5.31-1.2-1.11q2.66-2.27 3.95-4.94 1.28-2.69 1.28-6.05t-1.28-6.04q-1.29-2.7-3.96-4.94l1.2-1.13q2.8 2.16 4.4 5.2 1.6 3.04 1.6 6.91 0 3.86-1.6 6.9-1.6 3-4.4 5.2zM729 216.75q-.88 0-1.52-.62-.64-.63-.64-1.61 0-1.02.64-1.64.64-.63 1.52-.63.9 0 1.53.63.62.62.62 1.64 0 .98-.62 1.6-.63.63-1.53.63zm0 9.55q-.88 0-1.52-.62-.64-.63-.64-1.61 0-1.02.64-1.64.64-.63 1.52-.63.9 0 1.53.63.62.62.62 1.64 0 .98-.62 1.6-.63.63-1.53.63zm-120.69 47.69v-11.17h-6.02v-1.78h8.2v12.95zm.86-15.67q-.75 0-1.27-.47-.5-.47-.5-1.24 0-.78.5-1.23.52-.47 1.27-.47t1.25.47q.5.45.5 1.23 0 .77-.5 1.24t-1.25.47zm13.17 15.67v-14.05q0-1.58.56-2.76.58-1.2 1.72-1.83 1.15-.66 2.93-.66.97 0 1.88.17.92.18 1.86.58l-.5 1.64q-.81-.36-1.5-.48-.67-.13-1.52-.13-1.73 0-2.51.9-.77.92-.77 2.5v14.12zm-3.7-11.17v-1.66l3.77-.12h7.52v1.78zm37.65 11.17v-11.17h-6.01v-1.78h8.2v12.95zm.86-15.67q-.75 0-1.26-.47-.5-.47-.5-1.24 0-.78.5-1.23.51-.47 1.26-.47t1.25.47q.5.45.5 1.23 0 .77-.5 1.24t-1.25.47zm8.01 25.67v-.88q1.92-1.68 3.23-2.97 1.33-1.3 2.02-2.3.7-1.04.7-2t-.6-1.59q-.6-.62-1.87-.62-.8 0-1.48.39-.69.39-1.23.98l-.85-.84q.77-.78 1.64-1.25.9-.47 2.1-.47 1.14 0 1.97.42.82.41 1.28 1.16.45.75.45 1.77 0 1.06-.66 2.15-.65 1.08-1.84 2.28-1.19 1.19-2.73 2.61l1.07-.08q.53-.03 1.05-.03h3.73V284zm38.5-11.29-9.94-6.74v-1.64l9.94-6.75v2.1l-8.02 5.41v.11l8.02 5.4zm21.42 1.29v-1.81h4.9v-12.54h-3.8v-1.4q1.01-.14 1.78-.33.78-.19 1.42-.4.64-.24 1.17-.52h1.63v15.19h4.45v1.8zm21.42.31q-1.9 0-3.25-1.05-1.36-1.04-2.11-3.01-.75-1.99-.75-4.81 0-4.29 1.64-6.52 1.64-2.25 4.47-2.25 2.84 0 4.47 2.25 1.62 2.23 1.62 6.52 0 2.82-.73 4.8-.72 1.98-2.1 3.02-1.37 1.05-3.26 1.05zm0-1.75q1.2 0 2.1-.75.91-.76 1.43-2.34.51-1.6.51-4.03 0-2.46-.51-3.99-.52-1.55-1.42-2.28-.91-.73-2.11-.73-1.17 0-2.1.73-.92.73-1.45 2.28-.52 1.53-.52 3.99 0 2.43.52 4.03.53 1.58 1.45 2.34.93.75 2.1.75zm0-5.51q-.67 0-1.17-.49-.49-.48-.49-1.31 0-.81.49-1.28.5-.47 1.17-.47.68 0 1.17.47.48.47.48 1.28 0 .83-.48 1.31-.49.49-1.17.49z"/><path d="m642.2 106.5 12.91 84.14"/><path stroke="#595959" stroke-linecap="butt" stroke-linejoin="round" stroke-width="2" d="m642.2 106.5 11.87 77.36"/><path fill="#595959" fill-rule="evenodd" stroke="#595959" stroke-linecap="butt" stroke-width="2" d="m654.07 183.86-2.56-1.88 3.16 5.77 1.28-6.45z"/><path fill="#fff" fill-rule="evenodd" d="M673.84 350.55h194.59v91.25H673.84Z"/><path stroke="#000" stroke-linecap="butt" stroke-linejoin="round" d="M673.84 350.55h194.59v91.25H673.84Z"/><path fill="#000" d="M691.26 389.78V378.6h-6.01v-1.78h8.2v12.96zm.86-15.68q-.75 0-1.26-.46-.5-.47-.5-1.24 0-.78.5-1.23.51-.47 1.26-.47t1.25.47q.5.45.5 1.23 0 .77-.5 1.24-.5.46-1.25.46zm11.81 25.9q-.97 0-1.73-.24-.77-.23-1.35-.58-.58-.36-1-.8l.75-.95q.56.53 1.36.94.8.4 1.9.4.77 0 1.38-.24.61-.27.97-.74t.36-1.1q0-.66-.42-1.16-.4-.52-1.31-.8t-2.4-.28v-1.13q1.35 0 2.16-.28.83-.28 1.19-.75t.36-1.08q0-.82-.63-1.3-.62-.5-1.67-.5-.81 0-1.53.33-.72.32-1.27.83l-.78-.92q.72-.62 1.63-1.01.92-.41 2-.41 1.06 0 1.9.34.85.33 1.35.97.5.64.5 1.56 0 1.04-.69 1.7-.69.65-1.73 1v.09q.75.15 1.39.54.65.38 1.03.97.39.58.39 1.36 0 1.02-.56 1.73-.57.72-1.49 1.11-.92.4-2.06.4zm29.27-9.82-7.26-7.06v-.11l7.25-7.06 1.14 1.22-5.36 4.98h11.7v1.81h-11.7l5.36 4.99zm32.7-.4V378.6h-6.02v-1.78h8.2v12.96zm.86-15.68q-.75 0-1.27-.46-.5-.47-.5-1.24 0-.78.5-1.23.52-.47 1.27-.47t1.25.47q.5.45.5 1.23 0 .77-.5 1.24-.5.46-1.25.46zm8.01 25.68v-.88q1.92-1.69 3.23-2.97 1.33-1.3 2.02-2.31.7-1.03.7-1.98 0-.97-.6-1.6-.6-.62-1.87-.62-.8 0-1.48.39-.69.39-1.24.98l-.84-.84q.76-.78 1.64-1.25.89-.47 2.1-.47 1.13 0 1.96.42.83.4 1.28 1.16.46.75.46 1.76 0 1.07-.66 2.16-.66 1.08-1.84 2.28-1.2 1.19-2.74 2.61l1.08-.08q.53-.03 1.05-.03h3.73v1.27zm32.48-12.77v-5.2h-4.86v-1.66h4.86v-5.2H809v5.2h4.86v1.66H809v5.2zm27.44 2.77v-1.82h4.9v-12.53h-3.8v-1.4q1-.14 1.77-.33.78-.19 1.43-.4.64-.24 1.17-.52h1.62v15.18h4.46v1.82zM689.4 422.09q-1.2 0-2.21-.44-1.02-.44-1.61-1.26-.58-.83-.58-1.97 0-2.2 2.19-3.32 2.18-1.14 7.2-1.53-.03-.89-.38-1.62-.32-.75-1.07-1.19-.74-.45-1.99-.45-.83 0-1.64.23-.81.22-1.55.58-.73.36-1.34.73l-.86-1.48q.64-.42 1.56-.86.93-.45 1.99-.73 1.06-.29 2.22-.29 1.78 0 2.93.68 1.16.67 1.74 1.86.58 1.18.58 2.8v7.95h-1.8l-.19-1.77h-.08q-1.06.86-2.4 1.47-1.33.6-2.7.6zm.58-1.75q1.13 0 2.22-.5 1.1-.52 2.19-1.42V415q-2.78.23-4.38.67-1.57.42-2.23 1.08-.64.64-.64 1.5 0 .72.39 1.19.4.47 1.05.69.65.2 1.4.2zM703.93 432q-.97 0-1.73-.24-.77-.23-1.35-.58-.58-.36-1-.8l.75-.95q.56.53 1.36.94.8.4 1.9.4.77 0 1.38-.24.61-.27.97-.74t.36-1.1q0-.66-.42-1.16-.4-.52-1.31-.8t-2.4-.28v-1.13q1.35 0 2.16-.28.83-.28 1.19-.75t.36-1.08q0-.82-.63-1.3-.62-.5-1.67-.5-.81 0-1.53.33-.72.32-1.27.83l-.78-.92q.72-.62 1.63-1.01.92-.41 2-.41 1.06 0 1.9.34.85.33 1.35.97.5.64.5 1.56 0 1.04-.69 1.7-.69.65-1.73 1v.09q.75.15 1.39.54.65.38 1.03.97.39.58.39 1.36 0 1.02-.56 1.73-.57.72-1.49 1.11-.92.4-2.06.4zm29.27-9.82-7.26-7.06v-.11l7.25-7.06 1.14 1.22-5.36 4.98h11.7v1.81h-11.7l5.36 4.99zm30.84-.1q-1.2 0-2.22-.43-1.02-.44-1.6-1.26-.59-.83-.59-1.97 0-2.2 2.19-3.32 2.19-1.14 7.2-1.53-.03-.89-.37-1.62-.33-.75-1.08-1.19-.73-.45-1.98-.45-.83 0-1.64.23-.82.22-1.55.58-.74.36-1.35.73l-.85-1.48q.64-.42 1.56-.86.92-.45 1.98-.73 1.06-.29 2.22-.29 1.78 0 2.94.68 1.15.67 1.73 1.86.58 1.18.58 2.8v7.95h-1.8l-.18-1.77h-.08q-1.06.86-2.4 1.47-1.34.6-2.71.6zm.58-1.74q1.12 0 2.22-.5 1.09-.52 2.18-1.42V415q-2.78.23-4.37.67-1.58.42-2.24 1.08-.64.64-.64 1.5 0 .72.4 1.19t1.04.69q.66.2 1.4.2zm10.15 11.44v-.88q1.92-1.69 3.23-2.97 1.33-1.3 2.02-2.31.7-1.03.7-1.98 0-.97-.6-1.6-.6-.62-1.87-.62-.8 0-1.48.39-.69.39-1.24.98l-.84-.84q.76-.78 1.64-1.25.89-.47 2.1-.47 1.13 0 1.96.42.83.4 1.28 1.16.46.75.46 1.76 0 1.07-.66 2.16-.66 1.08-1.84 2.28-1.2 1.19-2.74 2.61l1.08-.08q.53-.03 1.05-.03h3.73v1.27zm30.15-12.96-1.13-.81 2.9-4.39-4.33-1.86.43-1.23 4.46 1.46.23-5.04h1.28l.24 5.04 4.45-1.46.42 1.23-4.31 1.86 2.88 4.39-1.11.81-3.2-4.25zm35.61 2.96V410.6h-6.01v-1.78h8.2v12.96zm.86-15.68q-.75 0-1.26-.46-.5-.47-.5-1.24 0-.78.5-1.23.51-.47 1.26-.47t1.25.47q.5.45.5 1.23 0 .77-.5 1.24-.5.46-1.25.46zM853.2 432q-.97 0-1.74-.24-.76-.23-1.34-.58-.58-.36-1-.8l.75-.95q.56.53 1.36.94.8.4 1.89.4.78 0 1.39-.24.61-.27.97-.74t.36-1.1q0-.66-.42-1.16-.41-.52-1.32-.8-.9-.28-2.39-.28v-1.13q1.35 0 2.16-.28.83-.28 1.19-.75t.36-1.08q0-.82-.63-1.3-.62-.5-1.67-.5-.81 0-1.53.33-.72.32-1.27.83l-.78-.92q.72-.62 1.63-1.01.92-.41 2-.41 1.06 0 1.9.34.85.33 1.35.97.5.64.5 1.56 0 1.04-.7 1.7-.68.65-1.73 1v.09q.75.15 1.4.54.65.38 1.03.97.39.58.39 1.36 0 1.02-.57 1.73-.56.72-1.48 1.11-.92.4-2.06.4z"/><path fill="#fff" fill-rule="evenodd" d="M493.95 335.1H655.1v45.68H493.95Z"/><path stroke="#000" stroke-linecap="butt" stroke-linejoin="round" d="M493.95 335.1H655.1v45.68H493.95Z"/><path fill="#000" d="M506.84 367.54V354.6h1.81l.19 3.06h.08q1.01-1.58 2.5-2.48 1.5-.9 3.28-.9.72 0 1.34.12.64.12 1.22.42l-.5 1.89q-.67-.25-1.16-.35-.47-.1-1.25-.1-1.47 0-2.8.84-1.35.83-2.52 2.86v7.6zm20.9.31q-1.96 0-3.55-.8-1.58-.79-2.51-2.32-.93-1.53-.93-3.69 0-2.1.93-3.62.93-1.53 2.43-2.35 1.52-.8 3.25-.8 1.88 0 3.2.76 1.3.76 2 2.12.72 1.36.72 3.19 0 .37-.03.73-.03.35-.07.61h-10.96v-1.72h9.64l-.54.63q0-2.3-1.07-3.44-1.04-1.15-2.82-1.15-1.2 0-2.24.59-1.03.58-1.64 1.7-.6 1.13-.6 2.75 0 1.67.65 2.8.67 1.12 1.81 1.7 1.16.56 2.6.56 1.17 0 2.1-.32.96-.35 1.85-.91l.8 1.45q-.97.63-2.2 1.08-1.24.45-2.82.45zm17.7 0q-1.9 0-2.99-.67-1.1-.68-1.56-1.87-.47-1.2-.47-2.8v-6.14h-3.64v-1.66l3.73-.12.28-4.16h1.82v4.16h6.37v1.78h-6.37v6.16q0 1.15.3 1.95.29.8 1 1.2.73.4 1.98.4.94 0 1.67-.16.75-.16 1.45-.42l.47 1.59q-.87.31-1.84.53-.97.23-2.2.23zm12.05 0q-2.33 0-3.42-1.32-1.1-1.33-1.1-3.9v-8.04h2.22v7.75q0 1.84.68 2.73.68.9 2.3.9 1.13 0 2.04-.57.92-.58 2-1.83v-8.98h2.19v12.95h-1.8l-.19-2.26h-.1q-1 1.12-2.16 1.86-1.17.71-2.66.71zm13.32-.3v-12.96h1.82l.18 3.06h.08q1.02-1.58 2.5-2.48 1.5-.9 3.28-.9.72 0 1.35.12.64.12 1.21.42l-.5 1.89q-.67-.25-1.15-.35-.47-.1-1.25-.1-1.47 0-2.81.84-1.35.83-2.52 2.86v7.6zm14.59 0v-12.96h1.81l.19 2.2h.1q1.01-1.08 2.18-1.8 1.17-.73 2.7-.73 2.29 0 3.38 1.34 1.1 1.33 1.1 3.9v8.04h-2.2v-7.75q0-1.84-.68-2.73-.69-.9-2.3-.9-1.14 0-2.05.6-.9.58-2.04 1.75v9.03zm36.07.3q-1.2 0-2.22-.43-1.02-.44-1.61-1.27-.58-.83-.58-1.97 0-2.18 2.19-3.31 2.18-1.14 7.2-1.53-.03-.9-.37-1.63-.33-.75-1.08-1.18-.74-.46-1.99-.46-.83 0-1.64.24-.81.22-1.54.58-.74.36-1.35.73l-.86-1.48q.64-.43 1.56-.86.93-.46 1.99-.74 1.06-.28 2.22-.28 1.78 0 2.94.67 1.15.67 1.73 1.86.58 1.19.58 2.81v7.94h-1.8l-.19-1.76h-.07q-1.07.86-2.41 1.47-1.33.6-2.7.6zm.57-1.75q1.13 0 2.22-.5 1.1-.51 2.19-1.42v-3.4q-2.78.23-4.37.67-1.58.42-2.24 1.08-.64.64-.64 1.5 0 .72.4 1.18.4.47 1.04.7.65.2 1.4.2zm10.16 11.44v-.87q1.92-1.69 3.23-2.97 1.33-1.3 2.01-2.31.7-1.04.7-1.99 0-.97-.6-1.6-.6-.62-1.86-.62-.8 0-1.49.4-.68.38-1.23.98l-.84-.85q.76-.78 1.64-1.25.89-.46 2.09-.46 1.14 0 1.97.42.83.4 1.28 1.15.45.75.45 1.77 0 1.06-.65 2.16-.66 1.07-1.85 2.28-1.18 1.18-2.73 2.6l1.08-.07q.53-.03 1.04-.03h3.74v1.26z"/><path d="m655.11 290.15-80.56 44.95"/><path stroke="#595959" stroke-linecap="butt" stroke-linejoin="round" stroke-width="2" d="m655.11 290.15-74.58 41.6"/><path fill="#595959" fill-rule="evenodd" stroke="#595959" stroke-linecap="butt" stroke-width="2" d="m580.53 331.76.87-3.06-4.3 4.97 6.5-1.04z"/><path d="m655.11 290.15 116.03 60.41"/><path stroke="#595959" stroke-linecap="butt" stroke-linejoin="round" stroke-width="2" d="m655.11 290.15 109.95 57.25"/><path fill="#595959" fill-rule="evenodd" stroke="#595959" stroke-linecap="butt" stroke-width="2" d="m765.06 347.4-3.03.95 6.52.86-4.44-4.85z"/><path d="M868.43 396.18h25V165.62H655.1v25.01"/><path stroke="#595959" stroke-linecap="butt" stroke-linejoin="round" stroke-width="2" d="M868.43 396.18h25V165.62H655.1v18.16"/><path fill="#595959" fill-rule="evenodd" stroke="#595959" stroke-linecap="butt" stroke-width="2" d="m655.1 183.78-2.25-2.25 2.25 6.18 2.25-6.18z"/><path fill="#fff" fill-rule="evenodd" d="M579.27 27.33h125.86v79.18H579.27Z"/><path stroke="#000" stroke-linecap="butt" stroke-linejoin="round" d="M579.27 27.33h125.86v79.18H579.27Z"/><path fill="#000" d="M596.69 60.52V49.35h-6.02v-1.78h8.2v12.95zm.86-15.67q-.75 0-1.27-.47-.5-.47-.5-1.24 0-.78.5-1.23.52-.47 1.27-.47t1.25.47q.5.45.5 1.23 0 .77-.5 1.24t-1.25.47zm8.43 25.67v-1.2h3.27v-8.36h-2.54v-.94q.68-.1 1.2-.22.5-.12.93-.27.44-.15.78-.34h1.1v10.13h2.96v1.2zm32.64-9.59-7.25-7.07v-.1l7.25-7.07 1.14 1.22-5.36 4.98h11.69v1.82h-11.7l5.37 4.98zm32.28-.1q-1.89 0-3.25-1.05-1.36-1.04-2.1-3.01-.76-1.99-.76-4.81 0-4.28 1.64-6.52 1.64-2.25 4.47-2.25 2.85 0 4.47 2.25 1.63 2.24 1.63 6.52 0 2.82-.74 4.8-.72 1.98-2.1 3.02-1.37 1.05-3.26 1.05zm0-1.75q1.2 0 2.11-.75.9-.76 1.42-2.34.52-1.6.52-4.03 0-2.46-.52-3.99-.51-1.54-1.42-2.28-.9-.73-2.1-.73-1.18 0-2.1.73-.92.74-1.46 2.28-.51 1.53-.51 3.99 0 2.43.51 4.03.54 1.58 1.46 2.34.92.75 2.1.75zm0-5.51q-.67 0-1.17-.49-.48-.48-.48-1.31 0-.81.48-1.28.5-.47 1.17-.47.69 0 1.17.47.49.47.49 1.28 0 .83-.49 1.31-.48.49-1.17.49zm-76.07 39.26q-1.2 0-2.22-.44-1.01-.43-1.6-1.26-.59-.83-.59-1.97 0-2.19 2.2-3.31 2.18-1.14 7.2-1.53-.04-.9-.38-1.63-.33-.75-1.08-1.19-.73-.45-1.98-.45-.83 0-1.64.23-.82.22-1.55.58-.73.36-1.34.74l-.86-1.49q.64-.42 1.56-.86.92-.45 1.98-.73 1.07-.28 2.22-.28 1.78 0 2.94.67t1.73 1.86q.58 1.19.58 2.81v7.94h-1.8l-.18-1.77h-.08q-1.06.86-2.4 1.47-1.33.61-2.71.61zm.58-1.75q1.12 0 2.22-.5 1.1-.51 2.18-1.42v-3.4q-2.78.23-4.37.67-1.58.42-2.23 1.07-.65.64-.65 1.5 0 .72.4 1.2.4.46 1.04.68.66.2 1.4.2zm10.57 11.44v-1.2h3.27v-8.36h-2.54v-.94q.68-.1 1.2-.22.5-.12.93-.27.44-.15.78-.34h1.1v10.13h2.96v1.2zm32.64-9.59-7.25-7.07v-.1l7.25-7.07 1.14 1.22-5.36 4.98h11.69v1.82h-11.7l5.37 4.98zm26.86-.41V90.7h4.9V78.18h-3.8v-1.41q1-.14 1.77-.33.79-.19 1.43-.4.64-.24 1.17-.52h1.62V90.7h4.46v1.8z"/><path fill="#eee" fill-rule="evenodd" d="M349.87 217.75h134.68v-17.42l34.83 34.84L484.55 270v-17.42H349.87Z"/><path stroke="#595959" stroke-linecap="butt" stroke-linejoin="round" d="M349.87 217.75h134.68v-17.42l34.83 34.84L484.55 270v-17.42H349.87Z"/><path fill="#000" d="M384.62 245.83V227.3h-6.92v-2.48h16.64v2.48h-6.95v18.52zm8.03-7.61q0-4.22 2.36-6.25 1.95-1.7 4.78-1.7 3.12 0 5.1 2.07 2 2.05 2 5.67 0 2.92-.87 4.61-.87 1.69-2.56 2.63-1.69.92-3.67.92-3.2 0-5.17-2.05-1.97-2.04-1.97-5.9zm2.65 0q0 2.92 1.27 4.37 1.28 1.45 3.22 1.45 1.92 0 3.19-1.45 1.28-1.47 1.28-4.45 0-2.83-1.28-4.28-1.29-1.46-3.2-1.46-1.93 0-3.21 1.46-1.27 1.43-1.27 4.36zm22.15.86 2.63-.22q.18 1.56.85 2.57.7 1.02 2.11 1.65 1.44.6 3.24.6 1.6 0 2.8-.46 1.21-.47 1.8-1.29.6-.82.6-1.8 0-1-.58-1.73-.56-.73-1.87-1.23-.85-.34-3.74-1.03t-4.06-1.31q-1.5-.79-2.23-1.96-.74-1.17-.74-2.6 0-1.6.9-2.98.9-1.39 2.63-2.1 1.74-.72 3.86-.72 2.33 0 4.11.76 1.78.75 2.74 2.22.97 1.45 1.04 3.3l-2.67.2q-.22-2-1.45-3.02-1.24-1.01-3.66-1.01-2.51 0-3.67.92-1.16.92-1.16 2.24 0 1.12.82 1.85.8.74 4.18 1.5 3.4.77 4.66 1.33 1.83.86 2.7 2.16.88 1.28.88 2.98 0 1.68-.97 3.16-.95 1.48-2.75 2.31-1.8.81-4.05.81-2.84 0-4.78-.82-1.92-.83-3.01-2.5-1.1-1.68-1.16-3.78zm19.56 0 2.63-.22q.18 1.56.86 2.57.68 1.02 2.1 1.65 1.44.6 3.24.6 1.6 0 2.8-.46 1.22-.47 1.8-1.29.6-.82.6-1.8 0-1-.58-1.73-.56-.73-1.87-1.23-.84-.34-3.73-1.03-2.9-.69-4.07-1.31-1.5-.79-2.23-1.96-.74-1.17-.74-2.6 0-1.6.9-2.98.9-1.39 2.64-2.1 1.73-.72 3.85-.72 2.33 0 4.11.76 1.79.75 2.74 2.22.97 1.45 1.05 3.3l-2.68.2q-.22-2-1.45-3.02-1.23-1.01-3.66-1.01-2.51 0-3.67.92-1.15.92-1.15 2.24 0 1.12.8 1.85.82.74 4.2 1.5 3.39.77 4.65 1.33 1.83.86 2.7 2.16.88 1.28.88 2.98 0 1.68-.97 3.16-.95 1.48-2.75 2.31-1.8.81-4.05.81-2.84 0-4.78-.82-1.92-.83-3.01-2.5-1.1-1.68-1.16-3.78zm18.2 6.75 8.07-21h3l8.59 21h-3.17l-2.45-6.36h-8.77l-2.31 6.36zm6.07-8.63h7.1l-2.18-5.81q-1-2.64-1.49-4.35-.4 2.02-1.14 4z"/><path d="M519.38 108.02h183.37v51.71H519.38Z"/><path fill="#fff" d="M528.38 117.02h165.26v32H528.38Z"/><path d="M528.38 116.39h95.97v33.5h-95.97Z"/><path fill="#000" d="M539.21 142.93q-2.06 0-3.15-1.17-1.1-1.19-1.1-3.49v-12.84h-4.42v-1.8h6.6v14.8q0 1.42.7 2.06.7.63 1.84.63.56 0 1.14-.14.6-.14 1.31-.47l.57 1.66q-.88.3-1.66.53-.77.23-1.83.23zm13.17 0q-1.7 0-3.16-.8-1.45-.8-2.36-2.3-.89-1.52-.89-3.66 0-2.2.9-3.7.9-1.52 2.35-2.32 1.45-.81 3.16-.81 1.7 0 3.15.81 1.46.8 2.35 2.31.89 1.52.89 3.7 0 2.15-.9 3.66-.88 1.52-2.34 2.31-1.45.8-3.15.8zm0-1.81q1.25 0 2.17-.63.94-.62 1.44-1.73.51-1.13.51-2.6 0-1.48-.51-2.6-.5-1.14-1.44-1.77-.92-.64-2.17-.64t-2.17.64q-.93.63-1.46 1.77-.51 1.12-.51 2.6 0 1.47.51 2.6.53 1.1 1.46 1.73.92.63 2.17.63zm16 1.81q-1.71 0-3.17-.8-1.45-.8-2.36-2.3-.89-1.52-.89-3.66 0-2.2.9-3.7.9-1.52 2.35-2.32 1.46-.81 3.16-.81 1.7 0 3.16.81 1.45.8 2.34 2.31.9 1.52.9 3.7 0 2.15-.9 3.66-.89 1.52-2.34 2.31-1.46.8-3.16.8zm0-1.81q1.24 0 2.16-.63.94-.62 1.44-1.73.52-1.13.52-2.6 0-1.48-.52-2.6-.5-1.14-1.44-1.77-.92-.64-2.17-.64t-2.17.64q-.92.63-1.45 1.77-.52 1.12-.52 2.6 0 1.47.52 2.6.53 1.1 1.45 1.73.92.63 2.17.63zm10.47 6.97v-18.42h1.81l.19 1.65h.08q.9-.86 2.1-1.42 1.18-.56 2.37-.56 1.76 0 2.95.81 1.19.81 1.8 2.3.6 1.48.6 3.51 0 2.17-.82 3.75-.83 1.58-2.16 2.4-1.33.82-2.9.82-.88 0-1.94-.44-1.05-.43-1.93-1.23h-.07l.1 2.45v4.38zm5.64-6.99q1.16 0 2.06-.6.9-.63 1.42-1.79.52-1.15.52-2.75 0-1.42-.38-2.5-.37-1.08-1.17-1.67-.8-.6-2.1-.6-.88 0-1.85.46-.97.47-1.95 1.48v6.46q.92.81 1.86 1.17.95.34 1.59.34zm19.41 6.2q-2.78-2.18-4.39-5.2-1.6-3.03-1.6-6.89 0-3.87 1.6-6.9 1.61-3.05 4.4-5.2l1.18 1.12q-2.65 2.23-3.94 4.94-1.28 2.68-1.28 6.04t1.28 6.05q1.29 2.67 3.94 4.94zm12.87-4.68v-11.17h-6.01v-1.78h8.2v12.95zm.86-15.67q-.75 0-1.26-.47-.5-.47-.5-1.24 0-.78.5-1.23.51-.47 1.26-.47t1.25.47q.5.45.5 1.23 0 .77-.5 1.24t-1.25.47z"/><path d="M624.35 135.14H635v22.33h-10.65Z"/><path fill="#000" d="M626.06 152.62v-1.2h3.27v-8.36h-2.53v-.94q.67-.1 1.19-.22.51-.13.93-.27.44-.15.78-.34h1.1v10.13h2.97v1.2z"/><path d="M635 116.39h32v33.5h-32Z"/><path fill="#000" d="m640.86 148.29-.6-1.37q1.7-.75 2.53-1.9.82-1.12.82-2.78l-.5-2.45 1.49 2.11q-.31.37-.7.5-.4.1-.79.1-.56 0-1.04-.21-.49-.23-.77-.67-.26-.44-.26-1.11 0-.99.62-1.5.64-.52 1.5-.52 1.17 0 1.78.93.63.9.63 2.48 0 2.34-1.27 3.95-1.25 1.61-3.44 2.44zm16.7-5.36q-1.2 0-2.22-.44-1.01-.43-1.6-1.26-.59-.83-.59-1.97 0-2.19 2.2-3.31 2.18-1.14 7.2-1.53-.04-.9-.38-1.63-.33-.75-1.08-1.19-.73-.45-1.98-.45-.83 0-1.64.23-.82.22-1.55.58-.73.36-1.34.74l-.86-1.49q.64-.42 1.56-.86.92-.45 1.98-.73 1.07-.28 2.22-.28 1.78 0 2.94.67t1.73 1.86q.58 1.19.58 2.81v7.94h-1.8l-.18-1.77h-.08q-1.06.86-2.4 1.47-1.33.61-2.7.61zm.58-1.75q1.12 0 2.22-.5 1.1-.51 2.19-1.42v-3.4q-2.79.23-4.38.66-1.58.43-2.23 1.08-.64.64-.64 1.5 0 .72.39 1.19.4.47 1.04.69.66.2 1.4.2z"/><path d="M667 135.14h10.65v22.33H667z"/><path fill="#000" d="M668.71 152.62v-1.2h3.27v-8.36h-2.53v-.94q.67-.1 1.18-.22.52-.13.94-.27.44-.15.78-.34h1.1v10.13h2.96v1.2z"/><path d="M677.65 116.39h16v33.5h-16z"/><path fill="#000" d="m682.1 147.3-1.2-1.1q2.67-2.27 3.95-4.94 1.29-2.69 1.29-6.05t-1.29-6.04q-1.28-2.7-3.95-4.94l1.2-1.13q2.8 2.16 4.4 5.2 1.6 3.04 1.6 6.91 0 3.86-1.6 6.9-1.6 3-4.4 5.2z"/><path d="M693.64 116.39v33.5zm81.08 158.46H958.1v51.72H774.72Z"/><path fill="#fff" d="M783.72 283.85h165.26v32H783.72Z"/><path d="M783.72 283.22h95.96v33.5h-95.96Z"/><path fill="#000" d="M794.55 309.76q-2.06 0-3.16-1.17-1.09-1.19-1.09-3.48v-12.85h-4.42v-1.8h6.6v14.8q0 1.43.7 2.07.7.62 1.84.62.56 0 1.14-.14.6-.14 1.31-.47l.56 1.66q-.87.31-1.65.53-.77.23-1.83.23zm13.17 0q-1.7 0-3.16-.8-1.45-.79-2.36-2.3-.9-1.52-.9-3.66 0-2.19.9-3.7.9-1.52 2.36-2.32 1.45-.81 3.16-.81 1.7 0 3.15.81 1.45.8 2.35 2.32.89 1.51.89 3.7 0 2.14-.9 3.65-.89 1.52-2.34 2.32-1.45.8-3.15.8zm0-1.8q1.25 0 2.17-.63.93-.63 1.43-1.74.52-1.12.52-2.6t-.52-2.6q-.5-1.14-1.43-1.77-.92-.64-2.17-.64t-2.18.64q-.92.63-1.45 1.77-.52 1.12-.52 2.6t.52 2.6q.53 1.11 1.45 1.74.93.62 2.18.62zm15.99 1.8q-1.7 0-3.16-.8-1.45-.79-2.36-2.3-.89-1.52-.89-3.66 0-2.19.9-3.7.9-1.52 2.35-2.32 1.46-.81 3.16-.81 1.7 0 3.16.81 1.45.8 2.34 2.32.89 1.51.89 3.7 0 2.14-.9 3.65-.88 1.52-2.33 2.32-1.46.8-3.16.8zm0-1.8q1.25 0 2.17-.63.94-.63 1.44-1.74.51-1.12.51-2.6t-.51-2.6q-.5-1.14-1.44-1.77-.92-.64-2.17-.64t-2.17.64q-.92.63-1.46 1.77-.51 1.12-.51 2.6t.51 2.6q.54 1.11 1.46 1.74.92.62 2.17.62zm10.48 6.96V296.5H836l.19 1.65h.08q.9-.85 2.09-1.42 1.19-.56 2.37-.56 1.77 0 2.96.81 1.18.82 1.8 2.3.6 1.48.6 3.52 0 2.17-.82 3.75-.83 1.57-2.16 2.4-1.33.81-2.9.81-.88 0-1.94-.43-1.05-.44-1.93-1.24h-.07l.1 2.46v4.37zm5.64-6.98q1.15 0 2.06-.61.9-.63 1.42-1.78.52-1.16.52-2.75 0-1.43-.38-2.5-.37-1.08-1.17-1.68-.8-.6-2.1-.6-.88 0-1.85.46-.97.47-1.96 1.49v6.45q.93.81 1.86 1.17.96.35 1.6.35zm19.41 6.2q-2.78-2.19-4.39-5.2-1.6-3.04-1.6-6.9 0-3.87 1.6-6.9 1.61-3.05 4.4-5.2l1.18 1.12q-2.66 2.24-3.94 4.94-1.28 2.69-1.28 6.05 0 3.35 1.28 6.04 1.28 2.67 3.94 4.94zm12.87-4.69v-11.17h-6.01v-1.78h8.2v12.95zm.86-15.67q-.75 0-1.26-.47-.5-.47-.5-1.23 0-.78.5-1.24.51-.47 1.26-.47t1.25.47q.5.46.5 1.24 0 .76-.5 1.23t-1.25.47z"/><path d="M879.68 301.97h10.66v22.33h-10.66z"/><path fill="#000" d="M884.78 319.67q-.97 0-1.74-.23-.76-.24-1.34-.58-.58-.36-1-.8l.75-.95q.56.53 1.36.94.8.4 1.89.4.78 0 1.39-.25.61-.26.97-.73t.36-1.1q0-.67-.42-1.17-.41-.51-1.32-.8-.9-.28-2.39-.28V313q1.35 0 2.16-.28.83-.28 1.19-.75t.36-1.08q0-.83-.63-1.31-.62-.49-1.67-.49-.81 0-1.53.33-.72.31-1.27.83l-.78-.92q.72-.63 1.63-1.02.92-.4 2-.4 1.06 0 1.9.34.85.33 1.35.97.5.64.5 1.56 0 1.03-.7 1.69-.68.65-1.73 1.01v.08q.75.16 1.4.55.65.37 1.03.97.39.57.39 1.36 0 1.01-.57 1.73-.56.72-1.48 1.11-.92.39-2.06.39z"/><path d="M890.34 283.22h32v33.5h-32z"/><path fill="#000" d="m896.2 315.12-.6-1.37q1.7-.75 2.52-1.9.83-1.12.83-2.77l-.5-2.46 1.49 2.11q-.32.38-.7.5-.4.11-.79.11-.56 0-1.04-.22-.49-.23-.77-.67-.27-.44-.27-1.1 0-1 .63-1.5.64-.52 1.5-.52 1.17 0 1.78.92.63.9.63 2.48 0 2.35-1.27 3.96-1.25 1.6-3.44 2.43zm16.7-5.36q-1.2 0-2.22-.43-1.02-.44-1.6-1.27-.59-.83-.59-1.97 0-2.19 2.2-3.31 2.18-1.14 7.2-1.53-.04-.9-.38-1.63-.33-.75-1.08-1.18-.73-.46-1.98-.46-.83 0-1.64.24-.82.22-1.55.58-.74.35-1.35.73l-.85-1.48q.64-.43 1.56-.86.92-.46 1.98-.74 1.06-.28 2.22-.28 1.78 0 2.94.67 1.15.67 1.73 1.86.58 1.19.58 2.81v7.94h-1.8l-.18-1.76H918q-1.06.86-2.4 1.46-1.34.61-2.71.61zm.58-1.75q1.12 0 2.22-.5 1.09-.51 2.18-1.42v-3.4q-2.78.23-4.37.67-1.58.42-2.24 1.08-.64.64-.64 1.5 0 .71.4 1.18t1.04.7q.66.2 1.4.2z"/><path d="M922.33 301.97h10.66v22.33h-10.66Z"/><path fill="#000" d="M927.42 319.67q-.96 0-1.73-.23-.77-.24-1.34-.58-.58-.36-1-.8l.75-.95q.56.53 1.36.94.8.4 1.89.4.78 0 1.39-.25.6-.26.97-.73.35-.47.35-1.1 0-.67-.42-1.17-.4-.51-1.3-.8-.92-.28-2.4-.28V313q1.34 0 2.16-.28.82-.28 1.18-.75t.36-1.08q0-.83-.62-1.31-.63-.49-1.67-.49-.82 0-1.54.33-.71.31-1.26.83l-.78-.92q.72-.63 1.62-1.02.92-.4 2-.4 1.07 0 1.9.34.85.33 1.35.97.5.64.5 1.56 0 1.03-.68 1.69-.7.65-1.74 1.01v.08q.75.16 1.4.55.65.37 1.02.97.4.57.4 1.36 0 1.01-.57 1.73-.56.72-1.48 1.11-.93.39-2.07.39z"/><path d="M932.99 283.22h16v33.5h-16Z"/><path fill="#000" d="m937.44 314.14-1.2-1.11q2.67-2.27 3.95-4.94 1.28-2.69 1.28-6.04 0-3.36-1.28-6.05-1.28-2.7-3.95-4.94l1.2-1.12q2.8 2.15 4.4 5.2 1.6 3.03 1.6 6.9 0 3.86-1.6 6.9-1.6 3.01-4.4 5.2z"/><path d="M948.98 283.22v33.5z"/></g></svg>