<svg xmlns="http://www.w3.org/2000/svg" width="394.11" height="286.79" fill="none" stroke-linecap="square" stroke-miterlimit="10"><clipPath id="a"><path d="M0 0h960v540H0Z"/></clipPath><g clip-path="url(#a)" transform="translate(-236.96 -99.19)"><path d="M397.54 152.54c0-9.73 7.41-17.62 16.56-17.62 4.4 0 8.61 1.85 11.72 5.16a18.2 18.2 0 0 1 4.85 12.46c0 9.73-7.42 17.62-16.57 17.62s-16.56-7.89-16.56-17.62z"/><path stroke="#000" stroke-linecap="butt" stroke-linejoin="round" stroke-width="2" d="M397.54 152.54c0-9.73 7.41-17.62 16.56-17.62 4.4 0 8.61 1.85 11.72 5.16a18.2 18.2 0 0 1 4.85 12.46c0 9.73-7.42 17.62-16.57 17.62s-16.56-7.89-16.56-17.62z"/><path d="M531.26 178.72c0-9.74 7.42-17.63 16.57-17.63 4.39 0 8.6 1.86 11.71 5.16a18.2 18.2 0 0 1 4.85 12.47c0 9.73-7.42 17.62-16.56 17.62-9.15 0-16.57-7.9-16.57-17.62z"/><path stroke="#000" stroke-linecap="butt" stroke-linejoin="round" stroke-width="2" d="M531.26 178.72c0-9.74 7.42-17.63 16.57-17.63 4.39 0 8.6 1.86 11.71 5.16a18.2 18.2 0 0 1 4.85 12.47c0 9.73-7.42 17.62-16.56 17.62-9.15 0-16.57-7.9-16.57-17.62z"/><path d="M498.12 321.55c0-9.73 7.42-17.62 16.57-17.62 4.4 0 8.6 1.86 11.72 5.16a18.2 18.2 0 0 1 4.85 12.46c0 9.74-7.42 17.63-16.57 17.63s-16.57-7.9-16.57-17.63z"/><path stroke="#000" stroke-linecap="butt" stroke-linejoin="round" stroke-width="2" d="M498.12 321.55c0-9.73 7.42-17.62 16.57-17.62 4.4 0 8.6 1.86 11.72 5.16a18.2 18.2 0 0 1 4.85 12.46c0 9.74-7.42 17.63-16.57 17.63s-16.57-7.9-16.57-17.63z"/><path d="M371.04 321.55c0-9.73 7.42-17.62 16.57-17.62 4.4 0 8.6 1.86 11.72 5.16a18.2 18.2 0 0 1 4.85 12.46c0 9.74-7.42 17.63-16.57 17.63s-16.57-7.9-16.57-17.63z"/><path stroke="#000" stroke-linecap="butt" stroke-linejoin="round" stroke-width="2" d="M371.04 321.55c0-9.73 7.42-17.62 16.57-17.62 4.4 0 8.6 1.86 11.72 5.16a18.2 18.2 0 0 1 4.85 12.46c0 9.74-7.42 17.63-16.57 17.63s-16.57-7.9-16.57-17.63z"/><path d="M307.56 250.02c0-9.73 7.41-17.62 16.56-17.62 4.4 0 8.61 1.86 11.72 5.16a18.2 18.2 0 0 1 4.85 12.46c0 9.74-7.42 17.63-16.57 17.63s-16.56-7.9-16.56-17.63z"/><path stroke="#000" stroke-linecap="butt" stroke-linejoin="round" stroke-width="2" d="M307.56 250.02c0-9.73 7.41-17.62 16.56-17.62 4.4 0 8.61 1.86 11.72 5.16a18.2 18.2 0 0 1 4.85 12.46c0 9.74-7.42 17.63-16.57 17.63s-16.56-7.9-16.56-17.63z"/><path d="m382.07 99.64 20.32 40.44"/><path stroke="#595959" stroke-linecap="butt" stroke-linejoin="round" stroke-width="2" d="m382.07 99.64 20.32 40.44"/><path d="m335.84 237.56 61.7-85.04"/><path stroke="#000" stroke-linecap="butt" stroke-linejoin="round" stroke-width="2" d="m335.84 237.56 61.7-85.04"/><path d="m236.97 248.76 70.59 1.26"/><path stroke="#595959" stroke-linecap="butt" stroke-linejoin="round" stroke-width="2" d="m236.97 248.76 70.59 1.26"/><path d="m375.9 309.1-40.07-46.62"/><path stroke="#000" stroke-linecap="butt" stroke-linejoin="round" stroke-width="2" d="m375.9 309.1-40.07-46.62"/><path d="m531.26 178.72-100.6-26.18"/><path stroke="#000" stroke-linecap="butt" stroke-linejoin="round" stroke-width="2" d="m531.26 178.72-100.6-26.18"/><path d="m514.7 303.93 33.12-107.59"/><path stroke="#000" stroke-linecap="butt" stroke-linejoin="round" stroke-width="2" d="m514.7 303.93 33.12-107.59"/><path d="M404.18 321.55h93.95"/><path stroke="#000" stroke-linecap="butt" stroke-linejoin="round" stroke-width="2" d="M404.18 321.55h93.95"/><path d="m294.41 327.35 76.63-5.8"/><path stroke="#595959" stroke-linecap="butt" stroke-linejoin="round" stroke-width="2" d="m294.41 327.35 76.63-5.8"/><path d="m340.75 375.68 35.15-41.66"/><path stroke="#595959" stroke-linecap="butt" stroke-linejoin="round" stroke-width="2" d="m340.75 375.68 35.15-41.66"/><path d="m398.2 385.76-10.59-46.58"/><path stroke="#595959" stroke-linecap="butt" stroke-linejoin="round" stroke-width="2" d="m398.2 385.76-10.59-46.58"/><path d="m584.55 384.76-58.14-50.74"/><path stroke="#595959" stroke-linecap="butt" stroke-linejoin="round" stroke-width="2" d="m584.55 384.76-58.14-50.74"/><path d="m630.91 189.3-66.52-10.58"/><path stroke="#595959" stroke-linecap="butt" stroke-linejoin="round" stroke-width="2" d="m630.91 189.3-66.52-10.58"/><path d="m605.71 122.82-46.17 43.43"/><path stroke="#595959" stroke-linecap="butt" stroke-linejoin="round" stroke-width="2" d="m605.71 122.82-46.17 43.43"/><path d="m414.1 170.16-26.48 133.77"/><path stroke="#0097a7" stroke-linecap="butt" stroke-linejoin="round" stroke-width="2" d="m414.1 170.16-26.48 133.77"/><path d="M502.98 309.1 425.8 165"/><path stroke="#0097a7" stroke-linecap="butt" stroke-linejoin="round" stroke-width="2" d="M502.98 309.1 425.8 165"/></g></svg>