<svg xmlns="http://www.w3.org/2000/svg" width="301.18" height="408.87" fill="none" stroke-linecap="square" stroke-miterlimit="10"><clipPath id="a"><path d="M0 0h960v540H0Z"/></clipPath><g clip-path="url(#a)" transform="translate(-232.9 -41.53)"><path fill="#fff" fill-rule="evenodd" d="M303.51 134.2h153.14v54.39H303.5Z"/><path stroke="#000" stroke-linecap="butt" stroke-linejoin="round" d="M303.51 134.2h153.14v54.39H303.5Z"/><path fill="#0097a7" d="M320.93 171v-11.18h-6.01v-1.78h8.2v12.95zm.86-15.68q-.75 0-1.26-.47-.5-.47-.5-1.23 0-.79.5-1.24.51-.47 1.26-.47t1.25.47q.5.45.5 1.24 0 .76-.5 1.23t-1.25.47zm30.41 16.08-7.25-7.07v-.1l7.25-7.07 1.14 1.22-5.36 4.99h11.69v1.8h-11.69l5.36 5zm26.24-.4v-1.32q2.87-2.53 4.86-4.45 1.98-1.94 3.01-3.49 1.05-1.55 1.05-2.95 0-1.47-.9-2.4-.91-.95-2.8-.95-1.2 0-2.24.6-1.01.58-1.84 1.47l-1.25-1.25q1.14-1.18 2.45-1.88 1.33-.72 3.14-.72 1.7 0 2.94.63 1.25.62 1.92 1.75.69 1.12.69 2.64 0 1.6-.98 3.22-.99 1.62-2.77 3.43-1.77 1.8-4.1 3.93.8-.08 1.6-.11.81-.05 1.58-.05h5.6v1.9z"/><path d="M264.22 279.45h61.45v38.08h-61.45z"/><path fill="#000" d="M302 308.1v-3.66h3.67v3.65zm-8.88 0v-3.66h3.65v3.65zm-8.9 0v-3.66h3.68v3.65z"/><path fill="#fff" fill-rule="evenodd" d="M380.08 254.17h153.13v115.75H380.08Z"/><path stroke="#000" stroke-linecap="butt" stroke-linejoin="round" d="M380.08 254.17h153.13v115.75H380.08Z"/><path fill="#ffab40" d="M394.25 295.43q-1.01 0-1.98-.25-.95-.25-1.72-.63l.72-1.62q.69.34 1.44.53.76.18 1.51.18 1.31 0 2.02-.42.7-.4.98-1.2.28-.8.28-1.9v-11.65h-6.01v-1.78h8.2v13.27q0 1.2-.27 2.2-.26 1-.89 1.73-.6.74-1.65 1.13-1.05.4-2.63.4zm4.11-21.46q-.75 0-1.26-.47-.5-.47-.5-1.23 0-.78.5-1.24.51-.46 1.26-.46t1.25.46q.5.46.5 1.24 0 .76-.5 1.23t-1.25.47zm30.41 16.08-7.25-7.06v-.11l7.25-7.06 1.14 1.21-5.36 4.99h11.69v1.81h-11.69l5.36 4.99zm34.1-.4V277.9l.06-1.5q.05-.81.06-1.5h-.12q-.4.6-.86 1.23l-.88 1.24-4.6 5.81h11.06v1.77H454.1v-1.47l8.5-10.85h2.35v17z"/><path fill="#0097a7" d="M391.57 327.11V308.7h1.8l.2 1.66h.07q.9-.86 2.1-1.42 1.18-.57 2.37-.57 1.77 0 2.96.82 1.18.8 1.8 2.3.6 1.48.6 3.5 0 2.18-.83 3.76-.82 1.58-2.15 2.4-1.33.82-2.9.82-.88 0-1.95-.44-1.04-.44-1.92-1.24h-.08l.11 2.46v4.37zm5.64-6.98q1.15 0 2.06-.61.9-.63 1.42-1.78.52-1.16.52-2.75 0-1.42-.38-2.5-.37-1.08-1.17-1.67-.8-.61-2.1-.61-.89 0-1.85.47-.97.46-1.96 1.48v6.45q.92.82 1.86 1.17.96.35 1.6.35zm11.76 1.51V308.7h1.8l.2 3.06h.07q1.02-1.57 2.5-2.48 1.5-.9 3.28-.9.72 0 1.35.12.64.12 1.22.42l-.5 1.9q-.68-.26-1.16-.35-.47-.11-1.25-.11-1.47 0-2.81.84-1.35.83-2.52 2.86v7.6zm20.52 0v-11.17h-6.02v-1.78h8.2v12.95zm.86-15.67q-.75 0-1.27-.47-.5-.47-.5-1.23 0-.78.5-1.24.52-.46 1.27-.46t1.25.46q.5.46.5 1.24 0 .76-.5 1.23t-1.25.47zm9.2 15.67V308.7h1.8l.2 2.2h.09q1.02-1.07 2.19-1.8t2.7-.73q2.28 0 3.38 1.35 1.09 1.32 1.09 3.89v8.04h-2.19v-7.75q0-1.84-.69-2.73-.68-.9-2.3-.9-1.13 0-2.04.6-.9.58-2.05 1.75v9.03zm24 .32q-1.89 0-2.98-.68-1.1-.68-1.56-1.87-.47-1.2-.47-2.8v-6.14h-3.64v-1.65l3.73-.13.28-4.16h1.82v4.16h6.37v1.78h-6.37v6.16q0 1.15.3 1.95t1.01 1.2q.72.4 1.97.4.94 0 1.67-.16.75-.16 1.45-.42l.47 1.6q-.87.3-1.84.52-.97.24-2.2.24zm29.91-.32v-11.17h-6.01v-1.78h8.2v12.95zm.86-15.67q-.75 0-1.26-.47-.5-.47-.5-1.23 0-.78.5-1.24.51-.46 1.26-.46t1.25.46q.5.46.5 1.24 0 .76-.5 1.23t-1.25.47z"/><path fill="#ffab40" d="M391.57 359.11V340.7h1.8l.2 1.66h.07q.9-.86 2.1-1.42 1.18-.57 2.37-.57 1.77 0 2.96.82 1.18.8 1.8 2.3.6 1.48.6 3.5 0 2.18-.83 3.76-.82 1.58-2.15 2.4-1.33.82-2.9.82-.88 0-1.95-.44-1.04-.44-1.92-1.24h-.08l.11 2.46v4.37zm5.64-6.98q1.15 0 2.06-.61.9-.63 1.42-1.78.52-1.16.52-2.75 0-1.42-.38-2.5-.37-1.08-1.17-1.67-.8-.61-2.1-.61-.89 0-1.85.47-.97.46-1.96 1.48v6.45q.92.82 1.86 1.17.96.35 1.6.35zm11.76 1.51V340.7h1.8l.2 3.06h.07q1.02-1.57 2.5-2.48 1.5-.9 3.28-.9.72 0 1.35.12.64.12 1.22.42l-.5 1.9q-.68-.26-1.16-.35-.47-.11-1.25-.11-1.47 0-2.81.84-1.35.83-2.52 2.86v7.6zm20.52 0v-11.17h-6.02v-1.78h8.2v12.95zm.86-15.67q-.75 0-1.27-.47-.5-.47-.5-1.23 0-.78.5-1.24.52-.46 1.27-.46t1.25.46q.5.46.5 1.24 0 .76-.5 1.23t-1.25.47zm9.2 15.67V340.7h1.8l.2 2.2h.09q1.02-1.07 2.19-1.8t2.7-.73q2.28 0 3.38 1.35 1.09 1.32 1.09 3.89v8.04h-2.19v-7.75q0-1.84-.69-2.73-.68-.9-2.3-.9-1.13 0-2.04.6-.9.58-2.05 1.75v9.03zm24 .32q-1.89 0-2.98-.68-1.1-.68-1.56-1.87-.47-1.2-.47-2.8v-6.14h-3.64v-1.65l3.73-.13.28-4.16h1.82v4.16h6.37v1.78h-6.37v6.16q0 1.15.3 1.95t1.01 1.2q.72.4 1.97.4.94 0 1.67-.16.75-.16 1.45-.42l.47 1.6q-.87.3-1.84.52-.97.24-2.2.24zm26.66 5.47q-1.01 0-1.98-.25-.95-.25-1.72-.63l.72-1.62q.69.34 1.44.53.76.18 1.51.18 1.32 0 2.02-.42.7-.4.98-1.2.28-.8.28-1.9v-11.65h-6.01v-1.78h8.2v13.27q0 1.2-.26 2.2-.27 1-.9 1.73-.6.74-1.65 1.13-1.05.4-2.63.4zm4.11-21.46q-.75 0-1.26-.47-.5-.47-.5-1.23 0-.78.5-1.24.51-.46 1.26-.46t1.25.46q.5.46.5 1.24 0 .76-.5 1.23t-1.25.47z"/><path d="m380.08 188.59-85.14 90.86"/><path stroke="#000" stroke-linecap="butt" stroke-linejoin="round" stroke-width="2" d="m380.08 188.59-80.45 85.86"/><path fill="#000" fill-rule="evenodd" stroke="#000" stroke-linecap="butt" stroke-width="2" d="m299.63 274.45-.1-3.18-2.59 6.05 5.87-2.97z"/><path d="m380.08 188.59 76.57 65.57"/><path stroke="#000" stroke-linecap="butt" stroke-linejoin="round" stroke-width="2" d="m380.08 188.59 71.36 61.11"/><path fill="#000" fill-rule="evenodd" stroke="#000" stroke-linecap="butt" stroke-width="2" d="m451.44 249.7-3.17.25 6.15 2.31-3.23-5.73z"/><path d="M380.08 87.83v46.36"/><path stroke="#000" stroke-linecap="butt" stroke-linejoin="round" stroke-width="2" d="M380.08 87.83v39.51"/><path fill="#000" fill-rule="evenodd" stroke="#000" stroke-linecap="butt" stroke-width="2" d="m380.08 127.34-2.25-2.25 2.25 6.18 2.25-6.18z"/><path d="m456.65 369.92-76.57 42.4"/><path stroke="#000" stroke-linecap="butt" stroke-linejoin="round" stroke-width="2" d="m456.65 369.92-70.57 39.07"/><path fill="#000" fill-rule="evenodd" stroke="#000" stroke-linecap="butt" stroke-width="2" d="m386.08 409 .88-3.07-4.32 4.97 6.5-1.03z"/><path d="M349.35 412.32h61.45v38.08h-61.45Z"/><path fill="#000" d="M387.12 440.96v-3.66h3.68v3.66zm-8.87 0v-3.66h3.66v3.66zm-8.9 0v-3.66h3.68v3.66z"/><path d="m294.95 317.53 85.13 94.8"/><path stroke="#000" stroke-linecap="butt" stroke-linejoin="round" stroke-width="2" d="m294.95 317.53 80.55 89.7"/><path fill="#000" fill-rule="evenodd" stroke="#000" stroke-linecap="butt" stroke-width="2" d="m375.5 407.24-3.18-.17 5.8 3.09-2.45-6.1z"/><path d="M403.25 42.48c.84 19.48-5.37 87.99 5.04 116.87 10.4 28.88 46.34 39.46 57.42 56.42 11.09 16.95 7.56 37.78 9.07 45.33"/><path stroke="#000" stroke-linecap="butt" stroke-linejoin="round" stroke-width="4" d="M403.25 42.48c.84 19.48-5.37 87.99 5.04 116.87 10.4 28.88 46.34 39.46 57.42 56.42 5.54 8.48 7.43 17.92 8.13 26.19a104.33 104.33 0 0 1 .28 4.51l.03.94"/><path fill="#000" fill-rule="evenodd" stroke="#000" stroke-linecap="butt" stroke-width="4" d="m474.15 247.4-4.7-4.28 5.06 12.14 3.93-12.55z"/><path d="M410.68 41.53h123.4v54.4h-123.4Z"/><path fill="#000" d="M445.3 59.26q4.37 0 6.68 1.78 2.31 1.77 1.56 5.31-.64 2.99-2.87 5.66-2.22 2.67-5.17 4.44-2.94 1.75-6.2 2.78-3.27 1.01-6.12 1.01h-3.42q-.25 0-.2-.18.14-.7 2.17-1.44 5.35-8.67 8-17.67-3.8.03-5.31 1.89-.4.76-.74 1.12-.34.35-1.07.8-.88.47-1.43.47-.21 0-.23-.19 0-.03.33-.56.33-.55.65-.95.35-.41.99-1.04.66-.62 1.7-1.18 1.05-.58 2.4-1.07 2.79-.98 5.38-.98zm-9.74 19.28q5.47 0 9.78-3.1t5.3-7.77q.7-3.33-1.44-5.02-2.14-1.7-6.3-1.7h-.67q-2.84 8.92-8.33 17.6zm17.44.58.43-2.14h1.88l-.44 2.14zm-2.76 13.12 2.32-11.06h1.87l-2.31 11.06zm22.01-25.56q2.12.72 4.6 2.38 2.46 1.64 3.82 3.12l-.6 2.75q-2.2-2.6-5.76-4.7-3.55-2.13-6.72-2.88l.33-1.48q3.5-.77 7.95-2.88 4.47-2.12 7.75-4.7l-.62 2.75q-1.3 1.08-4.67 2.9-3.38 1.8-6.05 2.6zm-7.08 12.06.48-2.28h15.05l-.48 2.28zm43.47-19.48q4.37 0 6.69 1.78 2.3 1.77 1.56 5.31-.64 2.99-2.88 5.66-2.22 2.67-5.17 4.44-2.94 1.75-6.2 2.78-3.27 1.01-6.11 1.01h-3.42q-.25 0-.2-.18.13-.7 2.17-1.44 5.34-8.67 8-17.67-3.8.03-5.32 1.89-.39.76-.73 1.12-.34.35-1.08.8-.87.47-1.42.47-.22 0-.24-.19 0-.03.33-.56.33-.55.66-.95.34-.41.98-1.04.66-.62 1.7-1.18 1.05-.58 2.41-1.07 2.78-.98 5.38-.98zm-9.74 19.28q5.47 0 9.79-3.1 4.3-3.1 5.3-7.77.7-3.33-1.45-5.02-2.14-1.7-6.3-1.7h-.66q-2.85 8.92-8.33 17.6zm17.44.58.44-2.14h1.87l-.45 2.14zm-5.97 17.28.33-1.6q.64.18 1.14.18.6 0 .97-.4.36-.41.75-2.23l2.31-11.17h1.89l-2.39 11.52q-.45 2.15-1.03 2.93-.78 1.04-2.19 1.04-.73 0-1.78-.27z"/><path d="M236.9 183.04v148.88"/><path stroke="#0097a7" stroke-linecap="butt" stroke-linejoin="round" stroke-width="8" d="M236.9 183.04v148.88"/><path d="M244.9 299.7v63.35"/><path stroke="#ffab40" stroke-linecap="butt" stroke-linejoin="round" stroke-width="8" d="M244.9 299.7v63.35"/></g></svg>