<svg xmlns="http://www.w3.org/2000/svg" width="664.22" height="231.07" fill="none" stroke-linecap="square" stroke-miterlimit="10"><clipPath id="a"><path d="M0 0h960v540H0Z"/></clipPath><g clip-path="url(#a)" transform="translate(-147 -105.02)"><path fill="#eee" fill-rule="evenodd" d="M224.04 253.07h118.9v82.52h-118.9Z"/><path stroke="#595959" stroke-linecap="butt" stroke-linejoin="round" d="M224.04 253.07h118.9v82.52h-118.9Z"/><path fill="#000" d="M255.8 303.93v-19.08h7.16q2.19 0 3.5.58 1.33.58 2.08 1.78.75 1.2.75 2.52 0 1.22-.67 2.31-.66 1.08-2 1.73 1.73.52 2.65 1.74.94 1.22.94 2.89 0 1.34-.56 2.5-.57 1.14-1.4 1.77-.84.62-2.1.95-1.25.31-3.07.31zm2.53-11.06h4.13q1.67 0 2.4-.22.96-.3 1.44-.95.5-.68.5-1.68 0-.93-.45-1.65-.45-.74-1.31-1-.85-.27-2.9-.27h-3.8zm0 8.81h4.75q1.22 0 1.72-.1.86-.15 1.44-.5.6-.38.97-1.07.39-.7.39-1.61 0-1.06-.55-1.84-.54-.8-1.51-1.11-.97-.33-2.8-.33h-4.4zm24.11 2.25v-2.03q-1.6 2.34-4.37 2.34-1.24 0-2.3-.47-1.06-.46-1.58-1.17-.5-.72-.72-1.75-.14-.68-.14-2.18v-8.57h2.35v7.67q0 1.83.14 2.47.22.93.93 1.46.72.53 1.77.53 1.06 0 1.98-.53.93-.55 1.3-1.47.4-.94.4-2.72v-7.4h2.34v13.82zm5.78-16.39v-2.69h2.34v2.69zm0 16.4V290.1h2.34v13.83zm5.86 0v-19.09h2.34v19.08zm14.94 0v-1.76q-1.31 2.06-3.86 2.06-1.66 0-3.05-.9-1.37-.92-2.14-2.55-.76-1.64-.76-3.75 0-2.08.68-3.77.7-1.68 2.08-2.57 1.38-.91 3.08-.91 1.25 0 2.22.53.98.53 1.6 1.38v-6.85h2.34v19.08zm-7.4-6.9q0 2.64 1.12 3.97 1.12 1.31 2.64 1.31 1.53 0 2.6-1.25 1.08-1.26 1.08-3.84 0-2.85-1.09-4.17-1.1-1.33-2.7-1.33-1.55 0-2.61 1.28-1.05 1.28-1.05 4.03z"/><path fill="#eee" fill-rule="evenodd" d="M376.14 253.07h156.8v82.52h-156.8Z"/><path stroke="#595959" stroke-linecap="butt" stroke-linejoin="round" d="M376.14 253.07h156.8v82.52h-156.8Z"/><path fill="#595959" d="M396.33 309.54q-1.94-2.45-3.28-5.72-1.34-3.28-1.34-6.8 0-3.1 1-5.93 1.17-3.3 3.62-6.57H398q-1.56 2.7-2.07 3.86-.8 1.8-1.25 3.75-.57 2.44-.57 4.91 0 6.25 3.9 12.5zm18.32-12.3 2.53.64q-.8 3.11-2.86 4.75-2.06 1.63-5.05 1.63-3.1 0-5.03-1.25-1.92-1.27-2.94-3.64-1-2.4-1-5.13 0-2.98 1.14-5.2t3.24-3.36q2.1-1.16 4.62-1.16 2.88 0 4.83 1.47 1.95 1.46 2.72 4.1l-2.49.58q-.67-2.08-1.93-3.04-1.25-.95-3.17-.95-2.2 0-3.7 1.06-1.46 1.05-2.05 2.83-.6 1.78-.6 3.66 0 2.44.7 4.26.7 1.82 2.2 2.72 1.5.9 3.26.9 2.1 0 3.58-1.23t2-3.64zm4.46-.22q0-3.84 2.13-5.68 1.78-1.55 4.34-1.55 2.86 0 4.66 1.88 1.81 1.85 1.81 5.15 0 2.67-.8 4.2-.8 1.54-2.32 2.38-1.53.84-3.35.84-2.89 0-4.68-1.86-1.79-1.86-1.79-5.36zm2.41 0q0 2.66 1.16 3.99 1.15 1.31 2.9 1.31t2.91-1.33q1.16-1.32 1.16-4.04 0-2.57-1.18-3.9-1.15-1.32-2.89-1.32-1.75 0-2.9 1.33-1.16 1.3-1.16 3.96zm22.31 5.2q-1.31 1.12-2.52 1.57-1.2.45-2.57.45-2.28 0-3.5-1.1-1.22-1.12-1.22-2.85 0-1.02.45-1.86.47-.84 1.22-1.34.75-.52 1.69-.77.68-.19 2.08-.36 2.82-.33 4.17-.8l.01-.62q0-1.42-.65-2.02-.91-.8-2.68-.8-1.65 0-2.45.6-.78.58-1.15 2.05l-2.3-.31q.31-1.47 1.03-2.38.72-.9 2.06-1.39 1.36-.5 3.14-.5t2.88.42q1.1.42 1.62 1.05.53.62.74 1.6.12.59.12 2.15v3.12q0 3.27.14 4.14.16.86.6 1.66h-2.44q-.38-.73-.47-1.7zm-.2-5.23q-1.27.52-3.83.9-1.44.2-2.05.46-.6.25-.92.75-.31.5-.31 1.13 0 .94.7 1.56.7.63 2.08.63 1.34 0 2.39-.6 1.06-.6 1.56-1.62.38-.8.38-2.35zm5.95 6.94v-19.08h2.34v19.08zm15.43-4.45 2.43.3q-.58 2.12-2.13 3.3-1.55 1.16-3.95 1.16-3.03 0-4.81-1.86-1.79-1.87-1.79-5.25 0-3.48 1.8-5.4 1.8-1.94 4.67-1.94 2.77 0 4.52 1.9 1.76 1.88 1.76 5.3l-.01.63h-10.31q.14 2.28 1.3 3.5 1.15 1.2 2.88 1.2 1.29 0 2.2-.67.91-.69 1.44-2.17zm-7.68-3.78h7.72q-.16-1.75-.9-2.63-1.12-1.34-2.9-1.34-1.61 0-2.72 1.08-1.1 1.07-1.2 2.89zm12.1 4.1 2.33-.35q.19 1.39 1.08 2.14.89.73 2.5.73 1.6 0 2.39-.65.78-.66.78-1.55 0-.8-.69-1.25-.48-.31-2.39-.8-2.57-.65-3.57-1.12-1-.47-1.52-1.32-.52-.84-.52-1.86 0-.92.43-1.7.43-.8 1.15-1.31.55-.4 1.49-.69.95-.28 2.03-.28 1.62 0 2.86.47 1.23.47 1.81 1.28.6.8.81 2.14l-2.3.31q-.15-1.07-.9-1.67-.75-.6-2.11-.6-1.61 0-2.31.54-.69.53-.69 1.25 0 .45.3.81.28.38.89.63.36.14 2.08.6 2.48.66 3.46 1.08.99.43 1.54 1.24.56.8.56 2 0 1.17-.69 2.22-.67 1.03-1.97 1.6-1.28.55-2.9.55-2.7 0-4.13-1.1-1.4-1.13-1.8-3.33zm23.3-.93 2.3.3q-.38 2.39-1.94 3.73-1.55 1.34-3.81 1.34-2.85 0-4.57-1.84-1.71-1.86-1.71-5.33 0-2.23.73-3.9.75-1.7 2.27-2.54 1.51-.84 3.3-.84 2.24 0 3.66 1.14 1.44 1.14 1.85 3.24l-2.28.35q-.33-1.39-1.16-2.09-.81-.7-1.98-.7-1.78 0-2.9 1.26-1.09 1.27-1.09 4.02 0 2.78 1.06 4.05 1.07 1.26 2.79 1.26 1.39 0 2.3-.84.93-.86 1.18-2.61zm13.77.6 2.42.3q-.58 2.13-2.13 3.3-1.54 1.17-3.95 1.17-3.03 0-4.81-1.86-1.78-1.87-1.78-5.25 0-3.48 1.8-5.4 1.79-1.94 4.66-1.94 2.77 0 4.52 1.9 1.77 1.88 1.77 5.3l-.02.63h-10.31q.14 2.28 1.3 3.5 1.15 1.2 2.89 1.2 1.28 0 2.18-.67.92-.69 1.46-2.17zm-7.7-3.77h7.73q-.16-1.75-.9-2.63-1.12-1.34-2.9-1.34-1.6 0-2.72 1.08-1.1 1.07-1.2 2.89zm14.6 13.84h-1.69q3.9-6.25 3.9-12.5 0-2.45-.55-4.86-.46-1.95-1.25-3.75-.5-1.17-2.1-3.9h1.69q2.44 3.26 3.6 6.56 1 2.83 1 5.93 0 3.52-1.34 6.8-1.34 3.27-3.26 5.72z"/><path fill="#eee" fill-rule="evenodd" d="M566.15 253.07h118.9v82.52h-118.9Z"/><path stroke="#595959" stroke-linecap="butt" stroke-linejoin="round" d="M566.15 253.07h118.9v82.52h-118.9Z"/><path fill="#000" d="m609.42 297.24 2.54.64q-.8 3.11-2.86 4.75-2.07 1.63-5.05 1.63-3.1 0-5.03-1.25-1.92-1.27-2.94-3.64-1-2.4-1-5.13 0-2.98 1.14-5.2t3.24-3.36q2.1-1.16 4.62-1.16 2.88 0 4.83 1.47 1.95 1.46 2.72 4.1l-2.49.58q-.67-2.08-1.93-3.04-1.25-.95-3.18-.95-2.2 0-3.68 1.06-1.47 1.05-2.07 2.83-.59 1.78-.59 3.66 0 2.44.7 4.26.7 1.82 2.2 2.72 1.5.9 3.26.9 2.1 0 3.57-1.23 1.49-1.23 2-3.64zm4.47-.22q0-3.84 2.13-5.68 1.78-1.55 4.34-1.55 2.86 0 4.66 1.88 1.81 1.85 1.81 5.15 0 2.67-.8 4.2-.8 1.54-2.32 2.38-1.53.84-3.35.84-2.89 0-4.68-1.86-1.79-1.86-1.79-5.36zm2.41 0q0 2.66 1.16 3.99 1.15 1.31 2.9 1.31t2.9-1.33q1.17-1.32 1.17-4.04 0-2.57-1.18-3.9-1.15-1.32-2.89-1.32-1.75 0-2.9 1.33-1.16 1.3-1.16 3.96zm13.23 6.91v-19.08h2.34v19.08zm5.11-6.9q0-3.85 2.13-5.7 1.78-1.54 4.34-1.54 2.86 0 4.66 1.88 1.8 1.85 1.8 5.15 0 2.67-.79 4.2-.8 1.54-2.33 2.38-1.53.84-3.34.84-2.9 0-4.69-1.86-1.78-1.86-1.78-5.36zm2.4 0q0 2.65 1.16 3.98 1.16 1.31 2.91 1.31 1.75 0 2.9-1.33 1.16-1.32 1.16-4.04 0-2.57-1.17-3.9-1.16-1.32-2.89-1.32-1.75 0-2.9 1.33-1.16 1.3-1.16 3.96zm13.27 6.9V290.1h2.1v2.1q.8-1.47 1.5-1.94.68-.47 1.5-.47 1.18 0 2.4.77l-.8 2.17q-.86-.52-1.72-.52-.76 0-1.39.47-.6.45-.86 1.28-.39 1.25-.39 2.74v7.23z"/><path fill="#eee" fill-rule="evenodd" d="M566.15 105.52h118.9v82.52h-118.9Z"/><path stroke="#595959" stroke-linecap="butt" stroke-linejoin="round" d="M566.15 105.52h118.9v82.52h-118.9Z"/><path fill="#000" d="m601.62 150.25 2.38-.22q.17 1.44.78 2.36.62.9 1.92 1.49 1.31.56 2.94.56 1.43 0 2.54-.42 1.11-.44 1.64-1.19.55-.75.55-1.64 0-.9-.53-1.56-.52-.67-1.7-1.13-.77-.3-3.41-.92-2.63-.64-3.67-1.2-1.38-.72-2.05-1.77-.67-1.06-.67-2.37 0-1.46.81-2.7.83-1.27 2.4-1.91 1.59-.66 3.5-.66 2.13 0 3.74.69 1.63.67 2.5 2 .88 1.33.94 3.01l-2.42.2q-.19-1.82-1.31-2.74-1.13-.94-3.33-.94-2.3 0-3.35.84-1.04.85-1.04 2.03 0 1.02.75 1.7.72.65 3.8 1.35 3.07.7 4.23 1.22 1.65.77 2.45 1.95.8 1.18.8 2.7 0 1.54-.88 2.88-.87 1.35-2.51 2.1-1.63.75-3.67.75-2.6 0-4.35-.75-1.75-.77-2.75-2.29-.98-1.51-1.03-3.42zm18.33 11.42v-19.12h2.14v1.8q.75-1.05 1.7-1.58t2.31-.53q1.77 0 3.11.92 1.36.9 2.05 2.56.69 1.66.69 3.64 0 2.13-.77 3.83-.75 1.69-2.2 2.6-1.46.9-3.05.9-1.17 0-2.1-.48-.93-.5-1.54-1.27v6.73zm2.12-12.12q0 2.66 1.08 3.94 1.1 1.28 2.62 1.28 1.57 0 2.68-1.31 1.1-1.33 1.1-4.11 0-2.64-1.09-3.96-1.08-1.31-2.6-1.31-1.48 0-2.63 1.4-1.16 1.4-1.16 4.07zm12.72-9.56v-2.7h2.34v2.7zm0 16.39v-13.83h2.34v13.83zm5.86 0V137.3h2.34v19.08zm5.92 0V137.3h2.34v19.08z"/><path d="M342.94 294.33h33.2"/><path stroke="#595959" stroke-linecap="butt" stroke-linejoin="round" stroke-width="2" d="M342.94 294.33h26.34"/><path fill="#595959" fill-rule="evenodd" stroke="#595959" stroke-linecap="butt" stroke-width="2" d="m369.28 294.33-2.25 2.25 6.18-2.25-6.18-2.25z"/><path d="M532.93 294.33h33.23"/><path stroke="#595959" stroke-linecap="butt" stroke-linejoin="round" stroke-width="2" d="M532.93 294.33h26.38"/><path fill="#595959" fill-rule="evenodd" stroke="#595959" stroke-linecap="butt" stroke-width="2" d="m559.3 294.33-2.24 2.25 6.18-2.25-6.18-2.25z"/><path d="M625.6 253.07v-65.04"/><path stroke="#595959" stroke-linecap="butt" stroke-linejoin="round" stroke-width="2" d="M625.6 253.07V194.9"/><path fill="#595959" fill-rule="evenodd" stroke="#595959" stroke-linecap="butt" stroke-width="2" d="m625.6 194.89 2.25 2.24-2.25-6.17-2.25 6.17z"/><path d="m685.05 294.33 112.1-.1"/><path stroke="#595959" stroke-linecap="butt" stroke-linejoin="round" stroke-width="2" d="m685.05 294.33 105.24-.09"/><path fill="#595959" fill-rule="evenodd" stroke="#595959" stroke-linecap="butt" stroke-width="2" d="m790.3 294.24-2.26 2.25 6.18-2.25-6.18-2.25z"/><path d="m147.01 295.24 77.01-.9"/><path stroke="#595959" stroke-linecap="butt" stroke-linejoin="round" stroke-width="2" d="m147.01 295.24 70.16-.83"/><path fill="#595959" fill-rule="evenodd" stroke="#595959" stroke-linecap="butt" stroke-width="2" d="m217.17 294.41-2.22 2.28 6.15-2.32-6.2-2.18z"/><path d="M566.15 146.78H283.48v106.3"/><path stroke="#595959" stroke-linecap="butt" stroke-linejoin="round" stroke-width="2" d="M566.15 146.78H283.48v99.44"/><path fill="#595959" fill-rule="evenodd" stroke="#595959" stroke-linecap="butt" stroke-width="2" d="m283.48 246.22-2.25-2.25 2.25 6.18 2.25-6.18z"/><path fill="#000" d="M639.24 230.4v-13.83h2.11v1.97q1.53-2.29 4.4-2.29 1.26 0 2.3.46 1.05.45 1.57 1.18.53.72.73 1.72.13.66.13 2.28v8.5h-2.35V222q0-1.44-.28-2.14-.26-.72-.97-1.14-.69-.42-1.62-.42-1.49 0-2.58.95-1.1.95-1.1 3.6v7.55zm13.97-6.91q0-3.85 2.12-5.69 1.78-1.55 4.35-1.55 2.86 0 4.65 1.88 1.81 1.86 1.81 5.16 0 2.67-.8 4.2-.79 1.53-2.32 2.37-1.53.85-3.34.85-2.9 0-4.7-1.86-1.77-1.86-1.77-5.36zm2.4 0q0 2.65 1.16 3.98 1.16 1.32 2.9 1.32 1.76 0 2.91-1.33 1.16-1.33 1.16-4.05 0-2.56-1.17-3.89-1.16-1.33-2.9-1.33t-2.9 1.33q-1.16 1.31-1.16 3.97zm18.4 4.81.33 2.06q-.98.22-1.76.22-1.27 0-1.97-.4-.7-.41-1-1.07-.28-.65-.28-2.76v-7.96h-1.72v-1.82h1.72v-3.43l2.33-1.4v4.83h2.36v1.82h-2.36v8.08q0 1 .12 1.3.13.28.4.45.29.17.8.17.4 0 1.04-.09zm8.85 2.1 4-19.08h2.34l-2.47 11.82 6.88-6.57h3.1l-5.9 5.15 3.58 8.67h-2.58l-2.76-7.09-2.86 2.47-.97 4.62zm13.27-5.74v-2.34h7.2v2.34zm18.8.67 2.3.3q-.37 2.39-1.93 3.73-1.55 1.35-3.81 1.35-2.85 0-4.57-1.85-1.71-1.86-1.71-5.32 0-2.24.73-3.91.75-1.69 2.27-2.53 1.51-.85 3.3-.85 2.24 0 3.66 1.14 1.44 1.15 1.85 3.24l-2.28.36q-.33-1.4-1.16-2.1-.81-.7-1.98-.7-1.79 0-2.9 1.27-1.09 1.26-1.09 4.01 0 2.78 1.06 4.05 1.07 1.27 2.79 1.27 1.39 0 2.3-.85.93-.86 1.18-2.6zm3.45-1.84q0-3.85 2.12-5.69 1.78-1.55 4.35-1.55 2.86 0 4.65 1.88 1.81 1.86 1.81 5.16 0 2.67-.8 4.2-.79 1.53-2.32 2.37-1.53.85-3.34.85-2.9 0-4.7-1.86-1.77-1.86-1.77-5.36zm2.4 0q0 2.65 1.16 3.98 1.16 1.32 2.9 1.32 1.76 0 2.91-1.33 1.16-1.33 1.16-4.05 0-2.56-1.17-3.89-1.16-1.33-2.9-1.33t-2.9 1.33q-1.16 1.31-1.16 3.97zm13.23 6.9v-19.07h2.35v19.07zm5.11-6.9q0-3.85 2.13-5.69 1.78-1.55 4.34-1.55 2.86 0 4.66 1.88 1.81 1.86 1.81 5.16 0 2.67-.8 4.2-.8 1.53-2.32 2.37-1.53.85-3.35.85-2.89 0-4.68-1.86-1.79-1.86-1.79-5.36zm2.41 0q0 2.65 1.16 3.98 1.15 1.32 2.9 1.32t2.9-1.33q1.17-1.33 1.17-4.05 0-2.56-1.18-3.89-1.15-1.33-2.89-1.33-1.75 0-2.9 1.33-1.16 1.31-1.16 3.97zm13.26 6.9v-13.82h2.11v2.09q.8-1.47 1.49-1.94.68-.47 1.5-.47 1.18 0 2.4.77l-.8 2.17q-.85-.51-1.71-.51-.77 0-1.4.46-.6.46-.85 1.29-.4 1.25-.4 2.73v7.23zm17.93-1.7q-1.32 1.11-2.52 1.56-1.2.46-2.58.46-2.28 0-3.5-1.11-1.22-1.11-1.22-2.85 0-1.01.46-1.86.47-.84 1.22-1.34.75-.51 1.68-.76.7-.2 2.08-.36 2.83-.33 4.17-.8l.02-.63q0-1.42-.66-2.01-.9-.8-2.67-.8-1.66 0-2.45.6-.78.57-1.16 2.04l-2.3-.31q.32-1.47 1.04-2.38.71-.9 2.06-1.39 1.36-.5 3.14-.5t2.87.43q1.11.42 1.63 1.04.53.63.73 1.6.13.59.13 2.15v3.13q0 3.26.14 4.14.16.86.6 1.65h-2.44q-.38-.73-.47-1.7zm-.2-5.23q-1.27.51-3.83.89-1.44.2-2.05.47-.6.25-.92.75-.32.5-.32 1.12 0 .94.7 1.56.71.63 2.09.63 1.34 0 2.39-.6 1.06-.59 1.56-1.62.37-.8.37-2.34zm8.16 6.93h-2.17v-19.07h2.34v6.8q1.49-1.87 3.78-1.87 1.29 0 2.41.52 1.14.52 1.88 1.45.75.92 1.15 2.25.42 1.32.42 2.8 0 3.56-1.76 5.5-1.75 1.94-4.22 1.94-2.44 0-3.83-2.05zm-.03-7.01q0 2.48.67 3.6 1.11 1.8 3 1.8 1.53 0 2.66-1.32 1.12-1.35 1.12-3.99 0-2.7-1.07-3.98-1.08-1.3-2.6-1.3-1.54 0-2.67 1.33-1.1 1.33-1.1 3.86zm12.64 7.01v-19.07h2.34v19.07zm15.44-4.45 2.42.3q-.58 2.12-2.13 3.3-1.54 1.17-3.95 1.17-3.03 0-4.81-1.86-1.78-1.88-1.78-5.25 0-3.49 1.8-5.4 1.79-1.95 4.66-1.95 2.77 0 4.52 1.9 1.77 1.89 1.77 5.3l-.02.63H800.9q.14 2.28 1.3 3.5 1.15 1.2 2.89 1.2 1.28 0 2.18-.67.92-.68 1.46-2.17zm-7.7-3.78h7.73q-.16-1.75-.9-2.62-1.12-1.35-2.9-1.35-1.6 0-2.72 1.08-1.1 1.08-1.2 2.89z"/></g></svg>