<svg xmlns="http://www.w3.org/2000/svg" width="231.32" height="276.75" fill="none" stroke-linecap="square" stroke-miterlimit="10"><clipPath id="a"><path d="M0 0h960v540H0Z"/></clipPath><g clip-path="url(#a)" transform="translate(-575.92 -123.23)"><path fill="#0097a7" fill-rule="evenodd" d="M575.92 162.85a10.08 10.08 0 1 1 20.16 0 10.08 10.08 0 1 1-20.16 0z"/><path fill="#ffab40" fill-rule="evenodd" d="M751.1 162.85a10.08 10.08 0 1 1 20.16 0 10.08 10.08 0 1 1-20.16 0z"/><path d="M596.08 162.85H751.1"/><path stroke="#000" stroke-linecap="butt" stroke-linejoin="round" stroke-width="2" d="M596.08 162.85H751.1"/><path fill="#000" d="M780.6 148.54q-1.2 0-2.22-.44-1.01-.44-1.6-1.26-.58-.83-.58-1.97 0-2.19 2.18-3.31 2.2-1.15 7.2-1.54-.02-.89-.37-1.62-.33-.75-1.08-1.19-.73-.45-1.98-.45-.83 0-1.64.23-.81.22-1.55.58-.73.36-1.34.74l-.86-1.49q.64-.42 1.56-.86.92-.45 1.99-.73 1.06-.28 2.22-.28 1.78 0 2.93.67 1.16.67 1.74 1.86.58 1.18.58 2.81v7.94h-1.8l-.19-1.77h-.08q-1.06.86-2.4 1.47-1.33.61-2.7.61zm.58-1.75q1.13 0 2.22-.5 1.1-.52 2.19-1.42v-3.4q-2.78.23-4.38.66-1.58.43-2.23 1.08-.64.64-.64 1.5 0 .72.39 1.19.4.47 1.05.69.65.2 1.4.2zm10.57 11.44v-1.2h3.27v-8.37h-2.53v-.93q.67-.1 1.19-.22.51-.13.93-.27.44-.15.78-.34h1.1v10.12h2.97v1.2zM607.7 142.3v-11.17h-6.02v-1.78h8.2v12.96zm.86-15.67q-.75 0-1.27-.46-.5-.47-.5-1.24 0-.78.5-1.23.52-.47 1.27-.47t1.25.47q.5.45.5 1.23 0 .77-.5 1.24-.5.46-1.25.46zm8.43 25.67v-1.2h3.26v-8.36h-2.53v-.93q.67-.1 1.19-.22.51-.13.94-.27.43-.15.78-.34h1.1v10.12h2.96v1.2z"/><path fill="#ffab40" fill-rule="evenodd" d="M575.92 267.01a10.08 10.08 0 1 1 20.16 0 10.08 10.08 0 1 1-20.16 0z"/><path fill="#0097a7" fill-rule="evenodd" d="M751.1 267.01a10.08 10.08 0 1 1 20.16 0 10.08 10.08 0 1 1-20.16 0z"/><path d="M596.08 267.01H751.1"/><path stroke="#000" stroke-linecap="butt" stroke-linejoin="round" stroke-width="2" d="M596.08 267.01H751.1"/><path fill="#ffab40" fill-rule="evenodd" d="M575.92 346.3a10.08 10.08 0 1 1 20.16 0 10.08 10.08 0 0 1-20.16 0z"/><path fill="#0097a7" fill-rule="evenodd" d="M751.1 346.3a10.08 10.08 0 1 1 20.16 0 10.08 10.08 0 0 1-20.16 0z"/><path d="M596.08 346.3H751.1"/><path stroke="#000" stroke-linecap="butt" stroke-linejoin="round" stroke-width="2" d="M596.08 346.3H751.1"/><path d="m754.05 274.14-160.91 65.04"/><path stroke="#000" stroke-linecap="butt" stroke-linejoin="round" stroke-width="2" d="m754.05 274.14-160.91 65.04"/><path fill="#000" d="M596.07 242.47V231.3h-6.01v-1.78h8.2v12.95zm.86-15.67q-.75 0-1.26-.47-.5-.47-.5-1.23 0-.78.5-1.24.51-.46 1.26-.46t1.25.46q.5.46.5 1.24 0 .76-.5 1.23t-1.25.47zm8.01 25.67v-.87q1.93-1.69 3.24-2.97 1.33-1.3 2.01-2.31.7-1.03.7-1.99 0-.97-.6-1.59-.6-.63-1.86-.63-.8 0-1.49.4-.68.39-1.23.98l-.84-.84q.76-.79 1.64-1.25.89-.47 2.09-.47 1.14 0 1.97.42.83.4 1.28 1.16.45.75.45 1.76 0 1.06-.65 2.16-.66 1.08-1.85 2.28-1.18 1.19-2.73 2.6l1.08-.07q.53-.03 1.04-.03h3.74v1.26zm177.74 6.59q-1.2 0-2.22-.43-1.01-.44-1.6-1.27-.59-.83-.59-1.97 0-2.18 2.2-3.31 2.18-1.14 7.2-1.53-.04-.9-.38-1.63-.33-.75-1.08-1.18-.73-.46-1.98-.46-.83 0-1.64.24-.82.22-1.55.58-.74.36-1.34.73l-.86-1.48q.64-.43 1.56-.86.92-.46 1.98-.74 1.07-.28 2.22-.28 1.78 0 2.94.67t1.73 1.86q.58 1.19.58 2.81v7.94h-1.8l-.18-1.76h-.08q-1.06.86-2.4 1.47-1.34.6-2.71.6zm.58-1.75q1.12 0 2.22-.5 1.09-.51 2.18-1.42V252q-2.78.23-4.37.67-1.58.42-2.24 1.08-.64.64-.64 1.5 0 .72.4 1.18.4.47 1.04.7.66.2 1.4.2zm10.14 11.44v-.87q1.93-1.69 3.24-2.97 1.33-1.3 2.02-2.31.7-1.04.7-1.99 0-.97-.6-1.6-.6-.62-1.87-.62-.8 0-1.48.4-.69.38-1.24.98l-.84-.85q.77-.78 1.64-1.25.9-.46 2.1-.46 1.13 0 1.96.42.83.4 1.28 1.15.46.75.46 1.77 0 1.06-.66 2.16-.66 1.07-1.84 2.28-1.19 1.18-2.74 2.6l1.08-.07q.53-.03 1.05-.03h3.73v1.26zm-4.8 108.23q-1.2 0-2.22-.44-1.01-.44-1.6-1.27-.59-.83-.59-1.97 0-2.18 2.2-3.3 2.18-1.15 7.2-1.54-.04-.9-.38-1.63-.33-.75-1.08-1.18-.73-.46-1.98-.46-.83 0-1.64.24-.82.22-1.55.58-.73.36-1.34.73l-.86-1.48q.64-.43 1.56-.86.92-.46 1.98-.74 1.07-.28 2.22-.28 1.78 0 2.94.67 1.16.68 1.73 1.86.58 1.19.58 2.82v7.93h-1.8l-.18-1.76h-.08q-1.06.86-2.4 1.47-1.33.6-2.7.6zm.58-1.75q1.12 0 2.22-.5 1.1-.52 2.19-1.43v-3.4q-2.79.23-4.38.67-1.58.42-2.23 1.08-.64.64-.64 1.5 0 .72.39 1.18.4.47 1.04.7.66.2 1.4.2zm13.95 11.65q-.97 0-1.74-.23-.76-.24-1.34-.58-.58-.36-1-.8l.75-.95q.56.53 1.36.94.8.4 1.89.4.78 0 1.39-.25.6-.26.97-.73.36-.47.36-1.1 0-.67-.43-1.17-.4-.51-1.3-.8-.91-.28-2.4-.28v-1.12q1.35 0 2.16-.28.83-.28 1.19-.75.35-.47.35-1.08 0-.83-.62-1.31-.63-.49-1.67-.49-.81 0-1.53.33-.72.31-1.27.83l-.78-.92q.72-.63 1.62-1.02.93-.4 2-.4 1.07 0 1.91.34.84.33 1.34.97.5.64.5 1.56 0 1.03-.68 1.69-.69.65-1.74 1.01v.08q.75.16 1.4.55.65.37 1.02.97.4.58.4 1.36 0 1.01-.57 1.73-.56.72-1.48 1.11-.92.4-2.06.4zm-198.46 2.87v-11.17h-6.01v-1.78h8.2v12.95zm.86-15.67q-.75 0-1.26-.47-.5-.47-.5-1.23 0-.78.5-1.24.51-.47 1.26-.47t1.25.47q.5.46.5 1.24 0 .76-.5 1.23t-1.25.47zm11.81 25.89q-.97 0-1.74-.23-.76-.24-1.34-.58-.58-.36-1-.8l.75-.95q.56.53 1.36.94.8.4 1.89.4.78 0 1.4-.25.6-.26.96-.73t.36-1.1q0-.67-.42-1.17-.4-.51-1.32-.8-.9-.28-2.39-.28v-1.12q1.35 0 2.16-.28.83-.28 1.19-.75t.36-1.08q0-.83-.63-1.31-.62-.49-1.67-.49-.81 0-1.53.33-.72.31-1.27.83l-.78-.92q.72-.63 1.63-1.02.92-.4 2-.4 1.06 0 1.9.34.85.33 1.35.97.5.64.5 1.56 0 1.03-.69 1.69-.69.65-1.73 1.01v.08q.75.16 1.39.55.65.37 1.03.97.39.58.39 1.36 0 1.01-.56 1.73-.57.72-1.49 1.11-.92.4-2.06.4z"/></g></svg>