<svg xmlns="http://www.w3.org/2000/svg" width="727.74" height="83.57" fill="none" stroke-linecap="square" stroke-miterlimit="10"><clipPath id="a"><path d="M0 0h960v540H0Z"/></clipPath><g clip-path="url(#a)" transform="translate(-123.87 -167.71)"><path fill="#eee" fill-rule="evenodd" d="M171.2 168.26h100.1v82.52H171.2Z"/><path stroke="#595959" stroke-linecap="butt" stroke-linejoin="round" d="M171.2 168.26h100.1v82.52H171.2Z"/><path fill="#000" d="m197.27 213 2.37-.22q.18 1.43.79 2.36.62.9 1.92 1.48 1.31.56 2.94.56 1.43 0 2.54-.42 1.11-.44 1.64-1.19.55-.75.55-1.64 0-.89-.53-1.56-.52-.67-1.7-1.12-.77-.3-3.41-.93-2.63-.64-3.67-1.2-1.38-.72-2.05-1.76-.67-1.07-.67-2.38 0-1.45.81-2.7.83-1.27 2.4-1.9 1.59-.67 3.5-.67 2.13 0 3.74.7 1.63.66 2.5 2 .88 1.32.94 3l-2.42.2q-.2-1.82-1.32-2.74-1.12-.94-3.32-.94-2.3 0-3.35.85-1.04.84-1.04 2.03 0 1.01.75 1.69.71.65 3.8 1.36 3.07.7 4.23 1.21 1.65.77 2.45 1.96.8 1.17.8 2.7 0 1.53-.88 2.88-.87 1.34-2.51 2.09-1.63.75-3.68.75-2.59 0-4.34-.75-1.75-.77-2.75-2.28-.98-1.52-1.03-3.42zm18.33 11.42v-19.13h2.14v1.8q.75-1.05 1.7-1.58t2.31-.53q1.77 0 3.11.92 1.36.9 2.05 2.56.69 1.66.69 3.65 0 2.12-.77 3.82-.75 1.7-2.2 2.6-1.46.9-3.05.9-1.17 0-2.1-.48-.93-.5-1.54-1.27v6.74zm2.12-12.13q0 2.66 1.08 3.94 1.1 1.28 2.62 1.28 1.57 0 2.68-1.31 1.1-1.33 1.1-4.11 0-2.64-1.09-3.95-1.08-1.32-2.6-1.32-1.48 0-2.63 1.41-1.16 1.4-1.16 4.06zm12.72-9.56v-2.69h2.34v2.69zm0 16.4v-13.84h2.34v13.83zm5.86 0v-19.09h2.34v19.08zm5.92 0v-19.09h2.34v19.08z"/><path fill="#eee" fill-rule="evenodd" d="M322.14 168.26h92.32v82.52h-92.32z"/><path stroke="#595959" stroke-linecap="butt" stroke-linejoin="round" d="M322.14 168.26h92.32v82.52h-92.32z"/><path fill="#000" d="m352.12 212.43 2.53.64q-.8 3.11-2.86 4.75-2.06 1.63-5.04 1.63-3.1 0-5.03-1.25-1.93-1.27-2.94-3.64-1-2.4-1-5.13 0-2.98 1.14-5.2t3.23-3.36q2.11-1.16 4.63-1.16 2.87 0 4.83 1.47 1.95 1.46 2.72 4.1l-2.49.58q-.67-2.08-1.94-3.04-1.25-.95-3.17-.95-2.2 0-3.69 1.06-1.46 1.05-2.06 2.83-.6 1.78-.6 3.66 0 2.44.71 4.26.7 1.82 2.2 2.72 1.5.9 3.25.9 2.11 0 3.58-1.23 1.49-1.23 2-3.64zm4.47-.22q0-3.84 2.13-5.68 1.78-1.55 4.34-1.55 2.86 0 4.66 1.88 1.8 1.85 1.8 5.15 0 2.67-.79 4.2-.8 1.54-2.33 2.38-1.53.84-3.34.84-2.89 0-4.69-1.86-1.78-1.86-1.78-5.36zm2.4 0q0 2.66 1.16 3.99 1.16 1.31 2.91 1.31 1.75 0 2.9-1.33 1.16-1.32 1.16-4.04 0-2.57-1.17-3.9-1.15-1.32-2.89-1.32-1.75 0-2.9 1.33-1.16 1.3-1.16 3.96zm13.24 6.91v-19.08h2.34v19.08zm5.1-6.9q0-3.85 2.13-5.7 1.79-1.54 4.35-1.54 2.86 0 4.65 1.88 1.82 1.85 1.82 5.15 0 2.67-.8 4.2-.8 1.54-2.33 2.38-1.53.84-3.34.84-2.9 0-4.69-1.86-1.78-1.86-1.78-5.36zm2.42 0q0 2.65 1.15 3.98 1.16 1.31 2.9 1.31 1.76 0 2.91-1.33 1.16-1.32 1.16-4.04 0-2.57-1.17-3.9-1.16-1.32-2.9-1.32t-2.9 1.33q-1.15 1.3-1.15 3.96zm13.26 6.9V205.3h2.1v2.1q.8-1.47 1.5-1.94.68-.47 1.5-.47 1.18 0 2.4.77l-.8 2.17q-.86-.52-1.72-.52-.76 0-1.39.47-.6.45-.86 1.28-.39 1.25-.39 2.74v7.23z"/><path fill="#eee" fill-rule="evenodd" d="M463.82 168.26h151.09v82.52H463.82Z"/><path stroke="#595959" stroke-linecap="butt" stroke-linejoin="round" d="M463.82 168.26h151.09v82.52H463.82Z"/><path fill="#595959" d="M481.16 224.73q-1.94-2.45-3.28-5.72-1.35-3.28-1.35-6.8 0-3.1 1-5.93 1.18-3.3 3.63-6.57h1.67q-1.56 2.7-2.08 3.86-.8 1.8-1.25 3.75-.56 2.44-.56 4.91 0 6.25 3.9 12.5zm18.31-12.3 2.54.64q-.8 3.11-2.86 4.75-2.07 1.63-5.05 1.63-3.1 0-5.03-1.25-1.92-1.27-2.94-3.64-1-2.4-1-5.13 0-2.98 1.14-5.2t3.24-3.36q2.1-1.16 4.62-1.16 2.88 0 4.83 1.47 1.95 1.46 2.72 4.1l-2.49.58q-.67-2.08-1.93-3.04-1.25-.95-3.18-.95-2.2 0-3.68 1.06-1.47 1.05-2.07 2.83-.6 1.78-.6 3.66 0 2.44.71 4.26.7 1.82 2.2 2.72 1.5.9 3.26.9 2.1 0 3.57-1.23 1.49-1.23 2-3.64zm4.47-.22q0-3.84 2.13-5.68 1.78-1.55 4.34-1.55 2.86 0 4.66 1.88 1.81 1.85 1.81 5.15 0 2.67-.8 4.2-.8 1.54-2.32 2.38-1.54.84-3.35.84-2.89 0-4.69-1.86-1.78-1.86-1.78-5.36zm2.4 0q0 2.66 1.17 3.99 1.15 1.31 2.9 1.31t2.9-1.33q1.16-1.32 1.16-4.04 0-2.57-1.17-3.9-1.15-1.32-2.89-1.32-1.75 0-2.9 1.33-1.16 1.3-1.16 3.96zm22.32 5.2q-1.31 1.12-2.52 1.57-1.2.45-2.58.45-2.28 0-3.5-1.1-1.21-1.12-1.21-2.85 0-1.02.45-1.86.47-.84 1.22-1.34.75-.52 1.69-.77.68-.19 2.07-.36 2.83-.33 4.18-.8l.01-.62q0-1.42-.66-2.02-.9-.8-2.67-.8-1.65 0-2.45.6-.78.58-1.16 2.05l-2.3-.31q.32-1.47 1.04-2.38.72-.9 2.06-1.39 1.36-.5 3.14-.5t2.88.42q1.1.42 1.62 1.05.53.62.74 1.6.12.59.12 2.15v3.12q0 3.27.14 4.14.16.86.6 1.66h-2.44q-.38-.73-.47-1.7zm-.2-5.23q-1.27.52-3.83.9-1.44.2-2.05.46-.6.25-.92.75-.31.5-.31 1.13 0 .94.7 1.56.7.63 2.08.63 1.34 0 2.39-.6 1.06-.6 1.56-1.62.38-.8.38-2.35zm5.95 6.94v-19.08h2.34v19.08zm15.43-4.45 2.42.3q-.57 2.12-2.12 3.3-1.55 1.16-3.95 1.16-3.03 0-4.82-1.86-1.78-1.87-1.78-5.25 0-3.48 1.8-5.4 1.8-1.94 4.67-1.94 2.77 0 4.52 1.9 1.76 1.88 1.76 5.3l-.01.63H542q.15 2.28 1.3 3.5 1.16 1.2 2.9 1.2 1.27 0 2.18-.67.92-.69 1.45-2.17zm-7.68-3.78h7.71q-.15-1.75-.89-2.63-1.12-1.34-2.9-1.34-1.61 0-2.72 1.08-1.1 1.07-1.2 2.89zm12.1 4.1 2.33-.35q.19 1.39 1.08 2.14.89.73 2.5.73 1.6 0 2.39-.65.78-.66.78-1.55 0-.8-.69-1.25-.48-.31-2.39-.8-2.58-.65-3.58-1.12-1-.47-1.51-1.32-.52-.84-.52-1.86 0-.92.42-1.7.44-.8 1.16-1.31.55-.4 1.48-.69.96-.28 2.04-.28 1.62 0 2.86.47 1.23.47 1.8 1.28.6.8.82 2.14l-2.3.31q-.15-1.07-.9-1.67-.75-.6-2.11-.6-1.61 0-2.31.54-.7.53-.7 1.25 0 .45.3.81.29.38.9.63.35.14 2.07.6 2.49.66 3.47 1.08.99.43 1.53 1.24.57.8.57 2 0 1.17-.7 2.22-.66 1.03-1.96 1.6-1.28.55-2.9.55-2.71 0-4.13-1.1-1.4-1.13-1.8-3.33zm23.3-.93 2.3.3q-.38 2.39-1.94 3.73-1.55 1.34-3.81 1.34-2.85 0-4.57-1.84-1.72-1.86-1.72-5.33 0-2.23.74-3.9.75-1.7 2.26-2.54 1.52-.84 3.3-.84 2.25 0 3.67 1.14 1.44 1.14 1.85 3.24l-2.28.35q-.33-1.39-1.16-2.09-.81-.7-1.99-.7-1.78 0-2.89 1.26-1.09 1.27-1.09 4.02 0 2.78 1.06 4.05 1.07 1.26 2.78 1.26 1.4 0 2.32-.84.92-.86 1.17-2.61zm13.76.6 2.43.3q-.58 2.13-2.13 3.3-1.55 1.17-3.95 1.17-3.03 0-4.81-1.86-1.79-1.87-1.79-5.25 0-3.48 1.8-5.4 1.8-1.94 4.67-1.94 2.77 0 4.52 1.9 1.76 1.88 1.76 5.3l-.01.63H583.5q.14 2.28 1.3 3.5 1.15 1.2 2.88 1.2 1.28 0 2.2-.67.91-.69 1.44-2.17zm-7.68-3.77h7.72q-.16-1.75-.9-2.63-1.12-1.34-2.9-1.34-1.61 0-2.72 1.08-1.1 1.07-1.2 2.89zm14.59 13.84h-1.69q3.89-6.25 3.89-12.5 0-2.45-.55-4.86-.45-1.95-1.25-3.75-.5-1.17-2.09-3.9h1.69q2.43 3.26 3.6 6.56 1 2.83 1 5.93 0 3.52-1.34 6.8-1.34 3.27-3.26 5.72z"/><path d="M271.3 209.52h50.83"/><path stroke="#595959" stroke-linecap="butt" stroke-linejoin="round" stroke-width="2" d="M271.3 209.52h43.98"/><path fill="#595959" fill-rule="evenodd" stroke="#595959" stroke-linecap="butt" stroke-width="2" d="m315.28 209.52-2.25 2.25 6.18-2.25-6.18-2.25z"/><path d="M414.46 209.52h49.35"/><path stroke="#595959" stroke-linecap="butt" stroke-linejoin="round" stroke-width="2" d="M414.46 209.52h42.5"/><path fill="#595959" fill-rule="evenodd" stroke="#595959" stroke-linecap="butt" stroke-width="2" d="m456.96 209.52-2.25 2.25 6.18-2.25-6.18-2.25z"/><path d="m614.9 209.52 41.58-.06"/><path stroke="#595959" stroke-linecap="butt" stroke-linejoin="round" stroke-width="2" d="m614.9 209.52 34.73-.05"/><path fill="#595959" fill-rule="evenodd" stroke="#595959" stroke-linecap="butt" stroke-width="2" d="m649.63 209.47-2.25 2.25 6.18-2.26-6.18-2.24z"/><path d="M123.87 209.52h47.33"/><path stroke="#595959" stroke-linecap="butt" stroke-linejoin="round" stroke-width="2" d="M123.87 209.52h40.48"/><path fill="#595959" fill-rule="evenodd" stroke="#595959" stroke-linecap="butt" stroke-width="2" d="m164.35 209.52-2.25 2.25 6.18-2.25-6.18-2.25z"/><path fill="#eee" fill-rule="evenodd" d="M656.49 168.21h151.08v82.52H656.5Z"/><path stroke="#595959" stroke-linecap="butt" stroke-linejoin="round" d="M656.49 168.21h151.08v82.52H656.5Z"/><path fill="#000" d="m706.56 196.95 2.38-.22q.17 1.44.78 2.36.63.9 1.92 1.48 1.31.57 2.94.57 1.44 0 2.55-.43 1.1-.43 1.64-1.18.54-.75.54-1.64 0-.9-.53-1.57-.51-.67-1.7-1.12-.77-.3-3.4-.92-2.63-.64-3.68-1.2-1.37-.73-2.05-1.77-.67-1.06-.67-2.38 0-1.45.82-2.7.82-1.27 2.4-1.9 1.58-.66 3.5-.66 2.13 0 3.74.68 1.62.68 2.5 2 .87 1.33.93 3.02l-2.42.19q-.19-1.81-1.31-2.74-1.13-.93-3.33-.93-2.3 0-3.34.84-1.05.84-1.05 2.03 0 1.02.75 1.69.72.65 3.8 1.36 3.08.7 4.23 1.22 1.66.76 2.45 1.95.8 1.17.8 2.7 0 1.53-.87 2.88-.88 1.34-2.52 2.1-1.62.74-3.67.74-2.6 0-4.34-.75-1.75-.76-2.75-2.28-.99-1.52-1.04-3.42zm17.78 0 2.38-.22q.17 1.44.78 2.36.62.9 1.92 1.48 1.31.57 2.94.57 1.44 0 2.55-.43 1.1-.43 1.64-1.18.54-.75.54-1.64 0-.9-.53-1.57-.51-.67-1.7-1.12-.77-.3-3.4-.92-2.63-.64-3.68-1.2-1.37-.73-2.05-1.77-.67-1.06-.67-2.38 0-1.45.81-2.7.83-1.27 2.41-1.9 1.58-.66 3.5-.66 2.13 0 3.74.68 1.62.68 2.5 2 .87 1.33.93 3.02l-2.42.19q-.19-1.81-1.31-2.74-1.13-.93-3.33-.93-2.3 0-3.34.84-1.05.84-1.05 2.03 0 1.02.75 1.69.72.65 3.8 1.36 3.07.7 4.23 1.22 1.66.76 2.45 1.95.8 1.17.8 2.7 0 1.53-.87 2.88-.88 1.34-2.52 2.1-1.62.74-3.67.74-2.6 0-4.35-.75-1.75-.76-2.75-2.28-.98-1.52-1.03-3.42zm16.55 6.12L748.2 184h2.74l7.8 19.07h-2.88l-2.22-5.78h-7.99l-2.09 5.78zm5.5-7.82h6.47l-2-5.3q-.9-2.4-1.35-3.95-.37 1.84-1.03 3.64zm-68.84 39.82v-1.75q-1.3 2.07-3.86 2.07-1.65 0-3.04-.91-1.38-.92-2.14-2.55-.77-1.64-.77-3.75 0-2.08.69-3.76.7-1.69 2.08-2.58 1.37-.9 3.07-.9 1.25 0 2.22.52.99.54 1.6 1.38V216h2.34v19.07zm-7.4-6.89q0 2.64 1.12 3.97 1.13 1.31 2.64 1.31 1.53 0 2.61-1.25 1.08-1.26 1.08-3.84 0-2.84-1.1-4.17-1.09-1.33-2.7-1.33-1.54 0-2.6 1.28-1.05 1.28-1.05 4.03zm22.73 2.44 2.42.3q-.58 2.12-2.13 3.3-1.54 1.17-3.95 1.17-3.03 0-4.81-1.86-1.78-1.88-1.78-5.25 0-3.49 1.8-5.41 1.8-1.94 4.67-1.94 2.76 0 4.51 1.9 1.77 1.88 1.77 5.3l-.02.63h-10.31q.14 2.28 1.3 3.5 1.15 1.2 2.89 1.2 1.28 0 2.18-.67.93-.69 1.46-2.17zm-7.69-3.78h7.72q-.16-1.75-.9-2.63-1.12-1.34-2.9-1.34-1.6 0-2.72 1.08-1.09 1.08-1.2 2.89zm12.1 4.1 2.33-.35q.2 1.39 1.08 2.14.9.73 2.5.73 1.61 0 2.4-.65.77-.66.77-1.55 0-.8-.68-1.25-.49-.31-2.4-.8-2.57-.65-3.57-1.12-1-.47-1.52-1.31-.51-.85-.51-1.86 0-.92.42-1.7.44-.8 1.16-1.32.54-.4 1.48-.69.95-.28 2.03-.28 1.63 0 2.86.47t1.81 1.28q.6.8.82 2.14l-2.3.32q-.16-1.08-.9-1.68-.76-.59-2.12-.59-1.6 0-2.31.53-.69.53-.69 1.25 0 .45.3.81.28.38.89.63.36.14 2.08.6 2.48.66 3.47 1.09.98.42 1.53 1.23.56.8.56 2 0 1.17-.69 2.22-.67 1.03-1.97 1.6-1.28.56-2.9.56-2.7 0-4.13-1.11-1.4-1.13-1.8-3.33zm19.4 2.04.33 2.06q-.99.22-1.77.22-1.27 0-1.97-.4-.7-.41-1-1.07-.28-.65-.28-2.76v-7.96h-1.72v-1.82H712v-3.43l2.33-1.4v4.83h2.36v1.82h-2.36v8.08q0 1 .12 1.3.13.28.4.45.29.17.8.17.4 0 1.04-.09zm2.26 2.1v-13.83h2.11v2.09q.8-1.47 1.49-1.94.68-.47 1.5-.47 1.18 0 2.4.77l-.8 2.17q-.85-.52-1.71-.52-.77 0-1.4.47-.6.46-.85 1.28-.4 1.25-.4 2.74v7.23zm17.96 0v-2.04q-1.61 2.35-4.38 2.35-1.23 0-2.3-.47-1.06-.47-1.57-1.17-.5-.72-.72-1.75-.14-.7-.14-2.2v-8.55h2.34v7.67q0 1.83.14 2.47.22.92.94 1.45.72.53 1.77.53 1.06 0 1.98-.53.92-.55 1.3-1.47.39-.94.39-2.72v-7.4H739v13.82zm14.8-5.07 2.29.3q-.38 2.39-1.94 3.73-1.55 1.35-3.81 1.35-2.85 0-4.56-1.85-1.72-1.86-1.72-5.33 0-2.23.73-3.9.75-1.69 2.27-2.53 1.51-.85 3.3-.85 2.24 0 3.67 1.14 1.43 1.14 1.84 3.24l-2.28.36q-.33-1.4-1.16-2.1-.81-.7-1.98-.7-1.78 0-2.9 1.27-1.09 1.26-1.09 4.01 0 2.78 1.07 4.05 1.06 1.26 2.78 1.26 1.39 0 2.3-.84.93-.86 1.18-2.6zm9.41 2.97.33 2.06q-.98.22-1.76.22-1.27 0-1.97-.4-.7-.41-1-1.07-.28-.65-.28-2.76v-7.96h-1.72v-1.82h1.72v-3.43l2.32-1.4v4.83h2.36v1.82h-2.36v8.08q0 1 .13 1.3.12.28.4.45.29.17.8.17.4 0 1.03-.09zm2.3-14.3V216h2.34v2.68zm0 16.4v-13.83h2.34v13.82zm5.05-6.91q0-3.85 2.12-5.69 1.78-1.55 4.35-1.55 2.85 0 4.65 1.88 1.81 1.86 1.81 5.15 0 2.68-.8 4.2-.79 1.54-2.32 2.38-1.53.85-3.34.85-2.9 0-4.7-1.86-1.77-1.86-1.77-5.36zm2.4 0q0 2.65 1.16 3.98 1.16 1.31 2.9 1.31 1.76 0 2.91-1.32 1.16-1.33 1.16-4.05 0-2.56-1.17-3.9-1.16-1.32-2.9-1.32t-2.9 1.33q-1.16 1.31-1.16 3.97zm13.28 6.9v-13.82h2.11v1.96q1.53-2.28 4.4-2.28 1.26 0 2.3.46 1.05.45 1.57 1.18.53.72.73 1.72.13.66.13 2.28v8.5h-2.35v-8.4q0-1.44-.28-2.14-.27-.72-.97-1.14-.69-.43-1.62-.43-1.49 0-2.58.96-1.1.95-1.1 3.6v7.55z"/><path d="M807.57 209.47h44.03"/><path stroke="#595959" stroke-linecap="butt" stroke-linejoin="round" stroke-width="2" d="M807.57 209.47h37.18"/><path fill="#595959" fill-rule="evenodd" stroke="#595959" stroke-linecap="butt" stroke-width="2" d="m844.75 209.47-2.25 2.25 6.18-2.25-6.18-2.25z"/></g></svg>